<svg width="24" height="24" viewBox="0 0 24 24" fill="none" xmlns="http://www.w3.org/2000/svg">
<path d="M2 17L6.86863 12.1313C7.26465 11.7353 7.46265 11.5373 7.69098 11.4631C7.89183 11.3979 8.10817 11.3979 8.30902 11.4631C8.53735 11.5373 8.73535 11.7353 9.13137 12.1313L11.8686 14.8686C12.2646 15.2646 12.4627 15.4626 12.691 15.5368C12.8918 15.6021 13.1082 15.6021 13.309 15.5368C13.5373 15.4626 13.7354 15.2646 14.1314 14.8686L21.5 7.5" stroke="#41403E" stroke-width="2" stroke-linecap="round" stroke-linejoin="round"/>
<path d="M15 7H20.4C20.9601 7 21.2401 7 21.454 7.10899C21.6422 7.20487 21.7951 7.35785 21.891 7.54601C22 7.75992 22 8.03995 22 8.6V14" stroke="#41403E" stroke-width="2" stroke-linecap="round" stroke-linejoin="round"/>
</svg>
