<svg width="24" height="24" viewBox="0 0 24 24" fill="none" xmlns="http://www.w3.org/2000/svg">
<path fill-rule="evenodd" clip-rule="evenodd" d="M6 6C6 5.44772 6.38376 5 6.85714 5H17.1429C17.6162 5 18 5.44772 18 6C18 6.55228 17.6162 7 17.1429 7H6.85714C6.38376 7 6 6.55228 6 6ZM6 12C6 11.4477 6.38376 11 6.85714 11H17.1429C17.6162 11 18 11.4477 18 12C18 12.5523 17.6162 13 17.1429 13H6.85714C6.38376 13 6 12.5523 6 12ZM6 18C6 17.4477 6.38376 17 6.85714 17H17.1429C17.6162 17 18 17.4477 18 18C18 18.5523 17.6162 19 17.1429 19H6.85714C6.38376 19 6 18.5523 6 18Z" fill="#41403E"/>
</svg>
