<svg width="24" height="24" viewBox="0 0 24 24" fill="none" xmlns="http://www.w3.org/2000/svg">
<path fill-rule="evenodd" clip-rule="evenodd" d="M15.793 2.79287C17.012 1.57393 18.9883 1.57392 20.2072 2.79287C21.4262 4.01183 21.4262 5.98814 20.2072 7.20709L7.64449 19.7698C7.62469 19.7896 7.60507 19.8093 7.58561 19.8288C7.29817 20.1168 7.04473 20.3707 6.7392 20.5579C6.47078 20.7224 6.17815 20.8436 5.87204 20.9171C5.5236 21.0007 5.16485 21.0004 4.75796 21C4.73041 21 4.70265 21 4.67464 21H3.0001C2.44782 21 2.0001 20.5523 2.0001 20V18.3255C2.0001 18.2975 2.00008 18.2697 2.00005 18.2422C1.99967 17.8353 1.99934 17.4765 2.08299 17.1281C2.15648 16.822 2.2777 16.5293 2.44218 16.2609C2.62942 15.9554 2.88332 15.7019 3.17131 15.4145C3.1908 15.395 3.21046 15.3754 3.23026 15.3556L15.793 2.79287ZM18.793 4.20709C18.3551 3.76919 17.6451 3.76919 17.2072 4.20709L15.4143 6L17.0001 7.58579L18.793 5.79288C19.2309 5.35497 19.2309 4.64499 18.793 4.20709ZM15.5859 9L14.0001 7.41421L4.64447 16.7698C4.26491 17.1494 4.19492 17.2285 4.14746 17.3059C4.09263 17.3954 4.05223 17.4929 4.02773 17.595C4.00653 17.6833 4.0001 17.7887 4.0001 18.3255V19H4.67464C5.21143 19 5.31683 18.9936 5.40515 18.9724C5.50718 18.9479 5.60473 18.9075 5.6942 18.8526C5.77164 18.8052 5.85072 18.7352 6.23028 18.3556L15.5859 9ZM11.0001 20C11.0001 19.4477 11.4478 19 12.0001 19H21.0001C21.5524 19 22.0001 19.4477 22.0001 20C22.0001 20.5523 21.5524 21 21.0001 21H12.0001C11.4478 21 11.0001 20.5523 11.0001 20Z" fill="#41403E"/>
</svg>
