<svg width="24" height="24" viewBox="0 0 24 24" fill="none" xmlns="http://www.w3.org/2000/svg">
<path fill-rule="evenodd" clip-rule="evenodd" d="M11.9929 3.71697C9.65298 1.67208 6.19252 1.25362 3.50521 3.54972C0.598423 6.03334 0.176093 10.2161 2.47471 13.174C3.34724 14.2968 5.05023 15.9835 6.68684 17.5283C8.34261 19.0912 9.99457 20.568 10.8092 21.2894L10.8247 21.3032C10.9013 21.3711 10.9967 21.4556 11.0881 21.5244C11.1975 21.6068 11.3547 21.7092 11.5645 21.7718C11.8434 21.855 12.1432 21.855 12.4221 21.7718C12.6319 21.7092 12.789 21.6068 12.8984 21.5244C12.9898 21.4556 13.0852 21.3711 13.1618 21.3032L13.1773 21.2894C13.992 20.568 15.6439 19.0912 17.2997 17.5283C18.9363 15.9835 20.6393 14.2968 21.5118 13.174C23.8016 10.2275 23.4445 6.01244 20.4709 3.54095C17.7537 1.28252 14.3301 1.6713 11.9929 3.71697ZM11.2333 5.78581C9.52828 3.79244 6.818 3.34981 4.80441 5.07027C2.7011 6.86739 2.41807 9.84177 4.05392 11.9468C4.81701 12.9287 6.40681 14.5138 8.05966 16.0739C9.6027 17.5303 11.1462 18.9145 11.9933 19.6663C12.8403 18.9145 14.3838 17.5303 15.9269 16.0739C17.5797 14.5138 19.1695 12.9287 19.9326 11.9468C21.5773 9.8304 21.3152 6.84326 19.1925 5.07904C17.1256 3.36111 14.4507 3.80125 12.7532 5.78581C12.5632 6.00792 12.2856 6.13579 11.9933 6.13579C11.701 6.13579 11.4233 6.00792 11.2333 5.78581Z" fill="#41403E"/>
</svg>
