<svg width="24" height="24" viewBox="0 0 24 24" fill="none" xmlns="http://www.w3.org/2000/svg">
<path fill-rule="evenodd" clip-rule="evenodd" d="M2 5C2 4.44772 2.44772 4 3 4H21C21.5523 4 22 4.44772 22 5C22 5.55228 21.5523 6 21 6H3C2.44772 6 2 5.55228 2 5ZM2 11.5C2 10.9477 2.44772 10.5 3 10.5H6.99994C7.55222 10.5 7.99994 10.9477 7.99994 11.5C7.99994 12.0523 7.55222 12.5 6.99994 12.5H3C2.44772 12.5 2 12.0523 2 11.5ZM2 18C2 17.4477 2.44772 17 3 17H6.99994C7.55222 17 7.99994 17.4477 7.99994 18C7.99994 18.5523 7.55222 19 6.99994 19H3C2.44772 19 2 18.5523 2 18ZM17 8.05665L20.3302 9.9793C21.2584 10.5152 21.8302 11.5056 21.8302 12.5774V16.4227C21.8302 17.4945 21.2584 18.4849 20.3302 19.0208L17 20.9434C16.0718 21.4793 14.9283 21.4793 14 20.9434L10.6699 19.0208C9.74172 18.4849 9.16992 17.4945 9.16992 16.4227V12.5774C9.16992 11.5056 9.74172 10.5152 10.6699 9.9793L14 8.05665C14.9283 7.52075 16.0718 7.52075 17 8.05665ZM16 9.7887C15.6906 9.61007 15.3095 9.61007 15 9.7887L11.6699 11.7113C11.3605 11.89 11.1699 12.2201 11.1699 12.5774V16.4227C11.1699 16.7799 11.3605 17.1101 11.6699 17.2887L15 19.2113C15.3095 19.39 15.6906 19.39 16 19.2113L19.3302 17.2887C19.6396 17.1101 19.8302 16.7799 19.8302 16.4227V12.5774C19.8302 12.2201 19.6396 11.89 19.3302 11.7113L16 9.7887ZM17.5 14.5C17.5 15.6046 16.6046 16.5 15.5 16.5C14.3954 16.5 13.5 15.6046 13.5 14.5C13.5 13.3954 14.3954 12.5 15.5 12.5C16.6046 12.5 17.5 13.3954 17.5 14.5Z" fill="#41403E"/>
</svg>
