<svg width="24" height="24" viewBox="0 0 24 24" fill="none" xmlns="http://www.w3.org/2000/svg">
<path fill-rule="evenodd" clip-rule="evenodd" d="M19.7945 5.19059L14.0003 1.84529C12.7627 1.13075 11.2379 1.13075 10.0003 1.84529L4.20605 5.19059C2.96845 5.90512 2.20605 7.22562 2.20605 8.65469V15.3453C2.20605 16.7743 2.96845 18.0949 4.20605 18.8094L10.0003 22.1547C11.2379 22.8692 12.7627 22.8692 14.0003 22.1547L19.7945 18.8094C21.0321 18.0949 21.7945 16.7743 21.7945 15.3453V8.65469C21.7945 7.22562 21.0321 5.90512 19.7945 5.19059ZM11.0003 3.57734C11.6191 3.22007 12.3815 3.22007 13.0003 3.57734L18.7945 6.92264C19.4133 7.2799 19.7945 7.94016 19.7945 8.65469V15.3453C19.7945 16.0598 19.4133 16.7201 18.7945 17.0773L13.0003 20.4226C12.3815 20.7799 11.6191 20.7799 11.0003 20.4226L5.20605 17.0773C4.58725 16.7201 4.20605 16.0598 4.20605 15.3453V8.65469C4.20605 7.94016 4.58725 7.2799 5.20605 6.92264L11.0003 3.57734ZM10 12C10 10.8954 10.8954 10 12 10C13.1046 10 14 10.8954 14 12C14 13.1046 13.1046 14 12 14C10.8954 14 10 13.1046 10 12ZM12 8C9.79086 8 8 9.79086 8 12C8 14.2091 9.79086 16 12 16C14.2091 16 16 14.2091 16 12C16 9.79086 14.2091 8 12 8Z" fill="#41403E"/>
</svg>
