<svg width="24" height="24" viewBox="0 0 24 24" fill="none" xmlns="http://www.w3.org/2000/svg">
<path fill-rule="evenodd" clip-rule="evenodd" d="M11.3544 1.77566C11.7628 1.58096 12.2372 1.58096 12.6456 1.77566C12.9986 1.94398 13.1932 2.23622 13.2914 2.39654C13.3928 2.56228 13.497 2.77342 13.5985 2.97921C13.6037 2.98972 13.6089 3.00022 13.6141 3.01069L15.7543 7.34648L20.5763 8.05129C20.8033 8.08442 21.0362 8.11841 21.2251 8.16384C21.4079 8.20779 21.7458 8.30284 22.0147 8.58668C22.3258 8.91505 22.4721 9.36626 22.4129 9.8147C22.3617 10.2023 22.1438 10.4776 22.0216 10.6204C21.8953 10.768 21.7267 10.9322 21.5623 11.0922L18.0745 14.4894L18.8975 19.2876C18.9363 19.5139 18.9762 19.746 18.9915 19.9398C19.0064 20.1272 19.0207 20.4781 18.834 20.8218C18.6181 21.2194 18.2342 21.4983 17.7893 21.5807C17.4047 21.652 17.0754 21.5299 16.9018 21.4579C16.7222 21.3834 16.5138 21.2737 16.3107 21.1668L12 18.8999L7.68933 21.1668C7.48617 21.2737 7.27775 21.3834 7.0982 21.4579C6.92456 21.5299 6.59528 21.652 6.21068 21.5807C5.76581 21.4983 5.38193 21.2194 5.16597 20.8218C4.97927 20.4781 4.99362 20.1272 5.00846 19.9398C5.0238 19.746 5.06366 19.5139 5.10251 19.2876L5.92547 14.4894L2.4628 11.1167C2.45444 11.1086 2.44607 11.1004 2.43768 11.0923C2.27332 10.9322 2.10466 10.768 1.97835 10.6204C1.85615 10.4776 1.6383 10.2023 1.58711 9.8147C1.52789 9.36626 1.67419 8.91505 1.98528 8.58668C2.25419 8.30284 2.5921 8.20779 2.77487 8.16384C2.96378 8.11841 3.1967 8.08442 3.42369 8.05129C3.43528 8.0496 3.44685 8.04791 3.45839 8.04622L8.24573 7.34648L10.3859 3.01069C10.3911 3.00022 10.3963 2.98972 10.4015 2.97921C10.503 2.77342 10.6072 2.56228 10.7086 2.39654C10.8068 2.23622 11.0014 1.94398 11.3544 1.77566Z" fill="white"/>
</svg>
