<svg width="24" height="24" viewBox="0 0 24 24" fill="none" xmlns="http://www.w3.org/2000/svg">
<path fill-rule="evenodd" clip-rule="evenodd" d="M17.6454 7.06028C15.3359 4.41499 11.406 3.68265 8.24999 5.50478C6.09152 6.75097 4.78622 8.90726 4.5408 11.213C4.48234 11.7622 3.98975 12.16 3.44057 12.1015C2.89139 12.0431 2.49357 11.5505 2.55203 11.0013C2.86221 8.08724 4.51449 5.35207 7.24999 3.77273C11.3787 1.38899 16.5531 2.45667 19.432 6.08056L19.5406 5.67517C19.6836 5.14171 20.2319 4.82513 20.7654 4.96807C21.2989 5.11101 21.6154 5.65935 21.4725 6.19281L20.7404 8.92486C20.5975 9.45833 20.0492 9.77491 19.5157 9.63197L16.7837 8.89992C16.2502 8.75698 15.9336 8.20864 16.0765 7.67517C16.2195 7.14171 16.7678 6.82512 17.3013 6.96807L17.6454 7.06028ZM12 6.49997C12.5523 6.49997 13 6.94768 13 7.49997V11.4338L15.0145 12.6425C15.4881 12.9266 15.6416 13.5409 15.3575 14.0145C15.0733 14.488 14.4591 14.6416 13.9855 14.3575L11.4855 12.8575C11.1843 12.6767 11 12.3512 11 12V7.49997C11 6.94768 11.4477 6.49997 12 6.49997ZM20.5593 11.8985C21.1085 11.9569 21.5063 12.4495 21.4479 12.9987C21.1377 15.9127 19.4854 18.6479 16.7499 20.2273C12.6212 22.611 7.4469 21.5433 4.56793 17.9195L4.45934 18.3248C4.3164 18.8582 3.76806 19.1748 3.23459 19.0319C2.70113 18.8889 2.38454 18.3406 2.52749 17.8071L3.25954 15.0751C3.40248 14.5416 3.95082 14.225 4.48428 14.368L7.21633 15.1C7.7498 15.243 8.06638 15.7913 7.92344 16.3248C7.7805 16.8582 7.23216 17.1748 6.69869 17.0319L6.35442 16.9396C8.66396 19.585 12.5939 20.3173 15.7499 18.4952C17.9084 17.249 19.2137 15.0927 19.4591 12.787C19.5176 12.2378 20.0102 11.84 20.5593 11.8985Z" fill="#41403E"/>
</svg>
