<svg width="24" height="24" viewBox="0 0 24 24" fill="none" xmlns="http://www.w3.org/2000/svg">
<path fill-rule="evenodd" clip-rule="evenodd" d="M8.47189 0.999901C8.48934 0.999947 8.50636 0.999993 8.52293 0.999993H15.4774C15.494 0.999993 15.511 0.999947 15.5285 0.999901C15.7184 0.999393 15.9575 0.998755 16.1929 1.05525C16.3969 1.10425 16.592 1.18506 16.771 1.29471C16.9773 1.42117 17.146 1.59072 17.2799 1.72536C17.2922 1.73773 17.3042 1.7498 17.3159 1.76152L22.2387 6.68426C22.2504 6.69598 22.2625 6.70799 22.2748 6.72029C22.4095 6.85422 22.579 7.02286 22.7055 7.22921C22.8151 7.40815 22.8959 7.60324 22.9449 7.80732C23.0014 8.04264 23.0008 8.28178 23.0003 8.47169C23.0002 8.48913 23.0002 8.50616 23.0002 8.52273V15.4773C23.0002 15.4938 23.0002 15.5109 23.0003 15.5283C23.0008 15.7182 23.0014 15.9573 22.9449 16.1927C22.8959 16.3967 22.8151 16.5918 22.7055 16.7708C22.579 16.9771 22.4095 17.1458 22.2748 17.2797C22.2625 17.292 22.2504 17.304 22.2387 17.3157L17.3159 22.2385C17.3042 22.2502 17.2922 22.2623 17.2799 22.2746C17.146 22.4093 16.9773 22.5788 16.771 22.7053C16.592 22.8149 16.3969 22.8957 16.1929 22.9447C15.9575 23.0012 15.7184 23.0006 15.5285 23.0001C15.511 23 15.494 23 15.4774 23H8.52293C8.50636 23 8.48933 23 8.47189 23.0001C8.28198 23.0006 8.04284 23.0012 7.80751 22.9447C7.60344 22.8957 7.40835 22.8149 7.22941 22.7053C7.02306 22.5788 6.85442 22.4093 6.72049 22.2746C6.70819 22.2623 6.69618 22.2502 6.68446 22.2385L1.76171 17.3157C1.75 17.304 1.73793 17.292 1.72556 17.2797C1.59092 17.1458 1.42137 16.9771 1.29491 16.7708C1.18525 16.5918 1.10444 16.3967 1.05545 16.1927C0.998953 15.9573 0.999592 15.7182 1.0001 15.5283C1.00015 15.5108 1.00019 15.4938 1.00019 15.4773V8.52273C1.00019 8.50616 1.00015 8.48914 1.0001 8.4717C0.999592 8.28179 0.998953 8.04265 1.05545 7.80732C1.10444 7.60324 1.18525 7.40815 1.29491 7.22921C1.42136 7.02285 1.59091 6.85421 1.72556 6.72028C1.73793 6.70798 1.75 6.69597 1.76171 6.68426L6.68446 1.76152C6.69617 1.7498 6.70818 1.73773 6.72048 1.72536C6.85441 1.59071 7.02305 1.42117 7.22941 1.29471C7.40835 1.18506 7.60344 1.10425 7.80751 1.05525C8.04285 0.998755 8.28198 0.999393 8.47189 0.999901ZM8.27547 3.00257C8.27462 3.00334 8.27374 3.00415 8.27282 3.00499C8.2377 3.03703 8.1913 3.0831 8.09867 3.17573L3.17593 8.09847C3.0833 8.1911 3.03723 8.2375 3.00519 8.27262C3.00435 8.27354 3.00354 8.27442 3.00277 8.27528C3.00272 8.27642 3.00266 8.27762 3.0026 8.27886C3.00043 8.32635 3.00019 8.39173 3.00019 8.52273V15.4773C3.00019 15.6083 3.00043 15.6736 3.0026 15.7211C3.00266 15.7224 3.00272 15.7236 3.00277 15.7247C3.00354 15.7256 3.00435 15.7264 3.00519 15.7274C3.03723 15.7625 3.0833 15.8089 3.17593 15.9015L8.09867 20.8243C8.1913 20.9169 8.2377 20.963 8.27282 20.995C8.27374 20.9958 8.27462 20.9966 8.27547 20.9974C8.27662 20.9975 8.27781 20.9975 8.27906 20.9976C8.32655 20.9998 8.39193 21 8.52293 21H15.4774C15.6084 21 15.6738 20.9998 15.7213 20.9976C15.7226 20.9975 15.7238 20.9975 15.7249 20.9974C15.7258 20.9966 15.7266 20.9958 15.7276 20.995C15.7627 20.963 15.8091 20.9169 15.9017 20.8243L20.8245 15.9015C20.9171 15.8089 20.9632 15.7625 20.9952 15.7274C20.996 15.7264 20.9968 15.7256 20.9976 15.7247C20.9977 15.7236 20.9977 15.7224 20.9978 15.7211C21 15.6736 21.0002 15.6083 21.0002 15.4773V8.52273C21.0002 8.39173 21 8.32635 20.9978 8.27886C20.9977 8.27762 20.9977 8.27642 20.9976 8.27528C20.9968 8.27442 20.996 8.27354 20.9952 8.27262C20.9632 8.2375 20.9171 8.1911 20.8245 8.09847L15.9017 3.17573C15.8091 3.0831 15.7627 3.03703 15.7276 3.00499C15.7266 3.00415 15.7258 3.00334 15.7249 3.00257C15.7238 3.00252 15.7226 3.00246 15.7213 3.0024C15.6738 3.00023 15.6084 2.99999 15.4774 2.99999H8.52293C8.39193 2.99999 8.32655 3.00023 8.27906 3.0024C8.27782 3.00246 8.27662 3.00252 8.27547 3.00257ZM12.0002 6.99999C12.5525 6.99999 13.0002 7.44771 13.0002 7.99999V12C13.0002 12.5523 12.5525 13 12.0002 13C11.4479 13 11.0002 12.5523 11.0002 12V7.99999C11.0002 7.44771 11.4479 6.99999 12.0002 6.99999ZM11.0002 16C11.0002 15.4477 11.4479 15 12.0002 15H12.0102C12.5625 15 13.0102 15.4477 13.0102 16C13.0102 16.5523 12.5625 17 12.0102 17H12.0002C11.4479 17 11.0002 16.5523 11.0002 16Z" fill="#41403E"/>
</svg>
