<svg width="24" height="24" viewBox="0 0 24 24" fill="none" xmlns="http://www.w3.org/2000/svg">
<path fill-rule="evenodd" clip-rule="evenodd" d="M14.598 3.5C13.4433 1.5 10.5565 1.5 9.4018 3.5L1.60757 17C0.452871 19 1.89625 21.5 4.20565 21.5H19.7941C22.1035 21.5 23.5469 19 22.3922 17L14.598 3.5ZM11.1339 4.5C11.5188 3.83333 12.481 3.83333 12.8659 4.5L20.6601 18C21.045 18.6667 20.5639 19.5 19.7941 19.5H4.20565C3.43585 19.5 2.95472 18.6667 3.33962 18L11.1339 4.5ZM13 8.99998C13 8.4477 12.5523 7.99998 12 7.99998C11.4477 7.99998 11 8.4477 11 8.99998V13C11 13.5523 11.4477 14 12 14C12.5523 14 13 13.5523 13 13V8.99998ZM12 16C11.4477 16 11 16.4477 11 17C11 17.5523 11.4477 18 12 18H12.01C12.5623 18 13.01 17.5523 13.01 17C13.01 16.4477 12.5623 16 12.01 16H12Z" fill="#41403E"/>
</svg>
