<svg width="24" height="24" viewBox="0 0 24 24" fill="none" xmlns="http://www.w3.org/2000/svg">
<path fill-rule="evenodd" clip-rule="evenodd" d="M7.04999 3.05025C8.36275 1.7375 10.1432 1 11.9997 1C13.8563 1 15.6367 1.7375 16.9495 3.05025C18.2622 4.36301 18.9997 6.14349 18.9997 8C18.9997 10.9127 19.7317 12.8439 20.4991 14.0771L20.5109 14.096C20.8682 14.6703 21.1507 15.1243 21.3411 15.4547C21.4366 15.6202 21.5235 15.7797 21.5879 15.9215C21.62 15.9922 21.6559 16.079 21.684 16.1733C21.7073 16.2515 21.7517 16.4187 21.7351 16.6223C21.7239 16.7591 21.696 16.9928 21.5619 17.2343C21.4277 17.4758 21.244 17.623 21.1337 17.7047C20.8834 17.8904 20.596 17.9329 20.5001 17.947L20.4957 17.9477C20.3482 17.9695 20.181 17.9804 20.0122 17.9869C19.677 18 19.2128 18 18.6356 18H5.36388C4.78666 18 4.32252 18 3.98726 17.9869C3.81851 17.9804 3.65123 17.9695 3.50382 17.9477L3.49939 17.947C3.40345 17.9329 3.11603 17.8904 2.86574 17.7047C2.7555 17.623 2.57178 17.4758 2.43762 17.2343C2.30347 16.9928 2.27558 16.7591 2.26439 16.6223C2.24774 16.4187 2.29214 16.2515 2.31545 16.1733C2.34354 16.079 2.37948 15.9922 2.41161 15.9215C2.47598 15.7797 2.56291 15.6202 2.65833 15.4547C2.84875 15.1243 3.13122 14.6703 3.48852 14.0961L3.50035 14.0771C4.26773 12.8439 4.99974 10.9127 4.99974 8C4.99974 6.14348 5.73724 4.36301 7.04999 3.05025ZM11.9997 3C10.6737 3 9.40189 3.52678 8.4642 4.46447C7.52652 5.40215 6.99974 6.67392 6.99974 8C6.99974 11.2677 6.17268 13.5681 5.19845 15.1337C4.9856 15.4758 4.80796 15.7614 4.66282 15.9988C4.8694 16 5.10972 16 5.38859 16H18.6109C18.8898 16 19.1301 16 19.3367 15.9988C19.1915 15.7614 19.0139 15.4758 18.801 15.1337C17.8268 13.5681 16.9997 11.2677 16.9997 8C16.9997 6.67392 16.473 5.40215 15.5353 4.46447C14.5976 3.52678 13.3258 3 11.9997 3ZM8.60417 20.3383C8.96964 19.9242 9.60158 19.8848 10.0156 20.2503C10.5451 20.7176 11.2382 21 11.9997 21C12.7613 21 13.4544 20.7176 13.9838 20.2503C14.3979 19.8848 15.0298 19.9242 15.3953 20.3383C15.7608 20.7523 15.7214 21.3843 15.3073 21.7497C14.4265 22.5272 13.2671 23 11.9997 23C10.7324 23 9.57299 22.5272 8.69218 21.7497C8.27811 21.3843 8.23871 20.7523 8.60417 20.3383Z" fill="#41403E"/>
</svg>
