<svg width="24" height="24" viewBox="0 0 24 24" fill="none" xmlns="http://www.w3.org/2000/svg">
<path fill-rule="evenodd" clip-rule="evenodd" d="M11.3148 0.964753C11.7657 0.858917 12.235 0.858917 12.6859 0.964753C13.2009 1.08565 13.6588 1.38414 14.1797 1.72374C14.2159 1.74736 14.2524 1.77117 14.2893 1.79514L20.5153 5.84202C20.5373 5.85637 20.5593 5.87065 20.5811 5.88484L21.8173 6.68835C21.8354 6.70013 21.8541 6.71218 21.8732 6.72453C22.079 6.85728 22.3379 7.0243 22.535 7.26024C22.7056 7.4644 22.8338 7.70055 22.912 7.95485C23.0024 8.24874 23.0013 8.55681 23.0005 8.80168C23.0004 8.82446 23.0003 8.84668 23.0003 8.8683V16.2413C23.0003 17.0463 23.0003 17.7106 22.9561 18.2518C22.9102 18.8139 22.8116 19.3306 22.5643 19.816C22.1809 20.5686 21.5689 21.1805 20.8163 21.564C20.3309 21.8113 19.8142 21.9099 19.2521 21.9558C18.711 22 18.0466 22 17.2416 22H6.75899C5.95403 22 5.28968 22 4.74849 21.9558C4.18639 21.9099 3.66969 21.8113 3.18436 21.564C2.43171 21.1805 1.81978 20.5686 1.43629 19.816C1.189 19.3306 1.09044 18.8139 1.04451 18.2518C1.00029 17.7106 1.0003 17.0463 1.00032 16.2413L1.00032 8.8683C1.00032 8.84668 1.00024 8.82445 1.00016 8.80168C0.999332 8.5568 0.998285 8.24874 1.08866 7.95485C1.16686 7.70054 1.29501 7.4644 1.46561 7.26024C1.66277 7.0243 1.92164 6.85728 2.12741 6.72453C2.14654 6.71218 2.16522 6.70013 2.18335 6.68835L3.41873 5.88535C3.44082 5.87099 3.46304 5.85654 3.48538 5.84202C3.49662 5.83472 3.50789 5.82739 3.51919 5.82005L9.71137 1.79514C9.74823 1.77117 9.78476 1.74736 9.82098 1.72375C10.3419 1.38414 10.7997 1.08565 11.3148 0.964753ZM10.8013 3.47202L4.60917 7.49694C4.24905 7.73102 4.03691 7.87008 3.89432 7.98242C3.88644 7.98863 3.87913 7.99449 3.87236 8C3.87913 8.00552 3.88644 8.01138 3.89432 8.01759C4.03691 8.12992 4.24905 8.26899 4.60917 8.50307L10.8013 12.528C11.4967 12.98 11.6425 13.0578 11.7718 13.0882C11.9221 13.1235 12.0785 13.1235 12.2288 13.0882C12.3581 13.0578 12.5039 12.98 13.1993 12.528L19.3915 8.50307C19.7516 8.26899 19.9637 8.12992 20.1063 8.01759C20.1142 8.01138 20.1215 8.00551 20.1283 8C20.1215 7.99449 20.1142 7.98863 20.1063 7.98242C19.9652 7.87123 19.7559 7.73385 19.4025 7.50408C19.3988 7.50171 19.3951 7.49933 19.3915 7.49694L13.1993 3.47202C12.5039 3.02004 12.3581 2.94218 12.2288 2.91184C12.0785 2.87656 11.9221 2.87656 11.7718 2.91184C11.6425 2.94218 11.4967 3.02004 10.8013 3.47202ZM21.0003 9.83781C20.8504 9.94019 20.6863 10.0468 20.5152 10.158L16.263 12.922L20.9967 17.1976C21.0002 16.9115 21.0003 16.5832 21.0003 16.2V9.83781ZM20.4392 19.3891L14.5279 14.0498L14.2893 14.2049C14.2524 14.2288 14.2159 14.2526 14.1797 14.2762C13.6588 14.6159 13.2009 14.9144 12.6859 15.0353C12.235 15.1411 11.7657 15.1411 11.3148 15.0353C10.7997 14.9144 10.3419 14.6159 9.82097 14.2763C9.78475 14.2526 9.74823 14.2288 9.71137 14.2049L9.47278 14.0498L3.56143 19.3891C3.71447 19.5476 3.89359 19.6807 4.09234 19.782C4.24874 19.8617 4.47294 19.9266 4.91136 19.9625C5.36144 19.9992 5.94374 20 6.80032 20H17.2003C18.0569 20 18.6392 19.9992 19.0893 19.9625C19.5277 19.9266 19.7519 19.8617 19.9083 19.782C20.107 19.6807 20.2862 19.5476 20.4392 19.3891ZM3.00394 17.1976L7.73765 12.922L3.48536 10.158C3.31427 10.0468 3.15024 9.94019 3.00032 9.83781V16.2C3.00032 16.5832 3.00047 16.9115 3.00394 17.1976Z" fill="#41403E"/>
</svg>
