<svg width="24" height="25" viewBox="0 0 24 25" fill="none" xmlns="http://www.w3.org/2000/svg">
<path fill-rule="evenodd" clip-rule="evenodd" d="M3.00054 12.32C3.00054 7.0733 7.25383 2.82001 12.5005 2.82001C17.7472 2.82001 22.0005 7.0733 22.0005 12.32C22.0005 17.5667 17.7472 21.82 12.5005 21.82C11.2989 21.82 10.1471 21.5964 9.08619 21.1877C8.99524 21.1526 8.94255 21.1324 8.9037 21.1184C8.89895 21.1167 8.89483 21.1153 8.89133 21.1141C8.89006 21.1142 8.88871 21.1143 8.88726 21.1144C8.85564 21.1168 8.81248 21.1212 8.72992 21.1297L3.6089 21.6591C3.59764 21.6602 3.58634 21.6614 3.57502 21.6626C3.36083 21.6848 3.13738 21.7079 2.95049 21.7101C2.76475 21.7123 2.42996 21.7018 2.10895 21.5059C1.73267 21.2764 1.47639 20.893 1.40816 20.4576C1.34996 20.0861 1.46825 19.7727 1.54127 19.6019C1.61474 19.4301 1.72156 19.2324 1.82395 19.043L3.47582 15.9855C3.54728 15.8532 3.58548 15.7821 3.61118 15.729C3.61253 15.7263 3.61378 15.7237 3.61493 15.7212C3.613 15.7143 3.61067 15.7061 3.60785 15.6966C3.58619 15.6233 3.55288 15.5239 3.49629 15.356C3.17452 14.4014 3.00054 13.38 3.00054 12.32ZM12.5005 4.82001C8.3584 4.82001 5.00053 8.17787 5.00053 12.32C5.00053 13.16 5.13824 13.9658 5.39152 14.7172C5.39957 14.7411 5.40787 14.7655 5.41632 14.7903C5.49747 15.0289 5.59278 15.309 5.61285 15.5625C5.63113 15.7936 5.61446 15.989 5.5573 16.2136C5.49477 16.4593 5.36771 16.6929 5.26464 16.8823C5.25466 16.9007 5.24489 16.9186 5.23544 16.9361L3.77964 19.6308L8.52428 19.1403C8.53504 19.1392 8.54609 19.138 8.55739 19.1369C8.6764 19.1244 8.82387 19.1089 8.9686 19.1144C9.10089 19.1195 9.21236 19.1343 9.34135 19.164C9.48295 19.1967 9.63656 19.2561 9.76612 19.3063C9.77941 19.3114 9.79245 19.3165 9.80519 19.3214C10.6404 19.6432 11.5486 19.82 12.5005 19.82C16.6427 19.82 20.0005 16.4621 20.0005 12.32C20.0005 8.17787 16.6427 4.82001 12.5005 4.82001ZM8.25054 9.82001C8.25054 8.99158 8.92211 8.32001 9.75054 8.32001C10.579 8.32001 11.2505 8.99158 11.2505 9.82001C11.2505 10.6484 10.579 11.32 9.75054 11.32C8.92211 11.32 8.25054 10.6484 8.25054 9.82001ZM13.7505 9.82001C13.7505 8.99158 14.4221 8.32001 15.2505 8.32001C16.079 8.32001 16.7505 8.99158 16.7505 9.82001C16.7505 10.6484 16.079 11.32 15.2505 11.32C14.4221 11.32 13.7505 10.6484 13.7505 9.82001ZM9.75211 14.1604C9.7518 14.16 9.75241 14.1607 9.75211 14.1604V14.1604ZM9.00054 14.82C8.24796 15.4785 8.24823 15.4788 8.24851 15.4791L8.25034 15.4812L8.25323 15.4845L8.26053 15.4927L8.2812 15.5153C8.29767 15.5332 8.31953 15.5563 8.34669 15.5841C8.40096 15.6395 8.4767 15.7135 8.57313 15.7997C8.76538 15.9717 9.04352 16.1956 9.40121 16.4186C10.1153 16.8637 11.1719 17.32 12.5005 17.32C13.8292 17.32 14.8858 16.8637 15.5999 16.4186C15.9576 16.1956 16.2357 15.9717 16.4279 15.7997C16.5244 15.7135 16.6001 15.6395 16.6544 15.5841C16.6815 15.5563 16.7034 15.5332 16.7199 15.5153L16.7405 15.4927L16.7478 15.4845L16.7507 15.4812L16.752 15.4798C16.7523 15.4795 16.7531 15.4785 16.0005 14.82L16.7531 15.4785C17.1168 15.0629 17.0747 14.4311 16.659 14.0674C16.2451 13.7052 15.6168 13.7455 15.2524 14.1565C15.2527 14.1562 15.253 14.1558 15.2524 14.1565L15.2513 14.1577C15.2475 14.1618 15.2384 14.1716 15.2254 14.1848C15.1993 14.2114 15.1554 14.2546 15.0946 14.309C14.9724 14.4183 14.7857 14.5694 14.5418 14.7214C14.0528 15.0263 13.3594 15.32 12.5005 15.32C11.6417 15.32 10.9483 15.0263 10.4592 14.7214C10.2154 14.5694 10.0287 14.4183 9.90645 14.309C9.84566 14.2546 9.80177 14.2114 9.77571 14.1848C9.76271 14.1716 9.75424 14.1625 9.75042 14.1584L9.74821 14.156C9.38384 13.7451 8.75597 13.7052 8.34203 14.0674C7.92639 14.4311 7.88482 15.0635 8.24851 15.4791L9.00054 14.82ZM9.75121 14.1593L9.75042 14.1584C9.74962 14.1575 9.7486 14.1564 9.74821 14.156M15.2524 14.1565C15.252 14.1569 15.2521 14.1569 15.2513 14.1577L15.2499 14.1593L15.249 14.1604C15.2503 14.1589 15.2511 14.1579 15.2524 14.1565Z" fill="#41403E"/>
</svg>
