<svg width="24" height="25" viewBox="0 0 24 25" fill="none" xmlns="http://www.w3.org/2000/svg">
<path fill-rule="evenodd" clip-rule="evenodd" d="M2 12.82C2 7.29716 6.47715 2.82001 12 2.82001C17.5228 2.82001 22 7.29716 22 12.82C22 18.3429 17.5228 22.82 12 22.82C10.6717 22.82 9.4015 22.5605 8.23921 22.0885C8.13423 22.0458 8.07362 22.0213 8.02887 22.0045C8.02358 22.0025 8.01898 22.0008 8.01505 21.9994C8.01356 21.9996 8.01198 21.9998 8.01029 22C7.97339 22.005 7.92309 22.0133 7.82705 22.0293L4.26916 22.6223C4.25966 22.6239 4.25008 22.6255 4.24044 22.6271C4.07981 22.6539 3.90011 22.6839 3.74404 22.6957C3.57386 22.7085 3.30312 22.713 3.017 22.5903C2.66329 22.4386 2.38144 22.1567 2.22973 21.803C2.10701 21.5169 2.11148 21.2461 2.12433 21.076C2.13611 20.9199 2.16612 20.7402 2.19294 20.5796C2.19455 20.5699 2.19615 20.5603 2.19773 20.5508L2.79071 16.993C2.80672 16.8969 2.815 16.8466 2.82 16.8097C2.82023 16.808 2.82044 16.8064 2.82063 16.805C2.8192 16.801 2.81751 16.7964 2.81552 16.7911C2.79872 16.7464 2.77419 16.6858 2.73156 16.5808C2.25952 15.4185 2 14.1483 2 12.82ZM12 4.82001C7.58172 4.82001 4 8.40173 4 12.82C4 13.886 4.20795 14.9009 4.58457 15.8282C4.59052 15.8429 4.59665 15.8579 4.6029 15.8732C4.66396 16.0227 4.73657 16.2005 4.77378 16.3666C4.80759 16.5174 4.82219 16.6492 4.82221 16.8037C4.82223 16.9734 4.79331 17.1449 4.76998 17.2832C4.76776 17.2964 4.76559 17.3092 4.7635 17.3218L4.21655 20.6035L7.49825 20.0565C7.51078 20.0544 7.52365 20.0522 7.53681 20.05C7.67516 20.0267 7.84665 19.9978 8.01626 19.9978C8.17082 19.9978 8.30263 20.0124 8.45344 20.0462C8.61947 20.0834 8.79728 20.156 8.94681 20.2171C8.96211 20.2234 8.97711 20.2295 8.99177 20.2354C9.91911 20.6121 10.934 20.82 12 20.82C16.4183 20.82 20 17.2383 20 12.82C20 8.40173 16.4183 4.82001 12 4.82001ZM6 12.82C6 11.9916 6.67157 11.32 7.5 11.32C8.32843 11.32 9 11.9916 9 12.82C9 13.6484 8.32843 14.32 7.5 14.32C6.67157 14.32 6 13.6484 6 12.82ZM10.5 12.82C10.5 11.9916 11.1716 11.32 12 11.32C12.8284 11.32 13.5 11.9916 13.5 12.82C13.5 13.6484 12.8284 14.32 12 14.32C11.1716 14.32 10.5 13.6484 10.5 12.82ZM15 12.82C15 11.9916 15.6716 11.32 16.5 11.32C17.3284 11.32 18 11.9916 18 12.82C18 13.6484 17.3284 14.32 16.5 14.32C15.6716 14.32 15 13.6484 15 12.82Z" fill="#41403E"/>
</svg>
