<svg width="24" height="25" viewBox="0 0 24 25" fill="none" xmlns="http://www.w3.org/2000/svg">
<path fill-rule="evenodd" clip-rule="evenodd" d="M4.99998 10.82C4.99998 5.84327 9.05917 1.82001 14.0526 1.82001C19.046 1.82001 23.1052 5.84327 23.1052 10.82C23.1052 11.9419 22.8983 13.0179 22.5195 14.0109C22.4829 14.1068 22.4616 14.1629 22.4469 14.2042C22.445 14.2095 22.4434 14.2141 22.4421 14.218C22.4422 14.2193 22.4424 14.2208 22.4425 14.2224C22.4457 14.2554 22.4511 14.3004 22.4617 14.3861L22.8677 17.6842C22.8865 17.8363 22.9078 18.0089 22.9129 18.1591C22.9185 18.3254 22.9115 18.5835 22.7876 18.8543C22.6328 19.1926 22.3579 19.4612 22.0161 19.6082C21.7425 19.7258 21.4843 19.7269 21.3182 19.7174C21.1681 19.7089 20.996 19.6836 20.8444 19.6613C20.8351 19.6599 20.8258 19.6586 20.8167 19.6572L17.6314 19.1903C17.543 19.1774 17.4965 19.1707 17.4624 19.1666C17.4608 19.1664 17.4592 19.1663 17.4578 19.1661C17.4539 19.1674 17.4492 19.169 17.4437 19.1709C17.401 19.1858 17.343 19.2074 17.2438 19.2446C16.2499 19.6169 15.1739 19.82 14.0526 19.82C13.873 19.82 13.6946 19.8148 13.5174 19.8045C12.5644 22.1532 10.3001 23.82 7.63159 23.82C6.90394 23.82 6.20297 23.695 5.54947 23.4644C5.44146 23.4263 5.37446 23.4027 5.32533 23.3864C5.31641 23.3835 5.3091 23.3811 5.30326 23.3793C5.30159 23.3794 5.29979 23.3796 5.29784 23.3799C5.26354 23.3837 5.21679 23.39 5.13013 23.4018L2.13533 23.8108C1.81127 23.8551 1.48606 23.7381 1.26448 23.4975C1.0429 23.2569 0.952961 22.9232 1.02365 22.6039L1.63499 19.8422C1.65624 19.7462 1.6676 19.6944 1.67491 19.6564C1.67532 19.6542 1.6757 19.6522 1.67604 19.6503C1.67423 19.644 1.67193 19.6362 1.66905 19.6266C1.65258 19.5721 1.62837 19.4978 1.589 19.3773C1.37731 18.7293 1.26317 18.0372 1.26317 17.32C1.26317 14.6939 2.79639 12.4114 5.01787 11.39C5.006 11.2014 4.99998 11.0113 4.99998 10.82ZM7.00005 10.8514C7.20767 10.8307 7.41834 10.82 7.63159 10.82C11.1715 10.82 14 13.7531 14 17.32C14 17.488 13.9937 17.6547 13.9814 17.8197C14.0051 17.8199 14.0288 17.82 14.0526 17.82C14.9309 17.82 15.7695 17.6611 16.5422 17.3717C16.5562 17.3664 16.5705 17.361 16.5851 17.3555C16.7264 17.3024 16.8931 17.2396 17.0454 17.2075C17.1846 17.1783 17.3034 17.1656 17.4456 17.1648C17.6007 17.1639 17.7585 17.1873 17.8859 17.2062C17.8981 17.208 17.9099 17.2098 17.9215 17.2115L20.8472 17.6403L20.4767 14.6305C20.4753 14.6193 20.4739 14.6078 20.4724 14.596C20.457 14.4725 20.4379 14.3197 20.4414 14.1699C20.4447 14.0324 20.4586 13.918 20.4884 13.7838C20.5209 13.637 20.5826 13.476 20.635 13.3396C20.6404 13.3255 20.6457 13.3116 20.6508 13.2981C20.9442 12.529 21.1052 11.6943 21.1052 10.82C21.1052 6.96019 17.9539 3.82001 14.0526 3.82001C10.1514 3.82001 6.99998 6.96019 6.99998 10.82C6.99998 10.8305 7 10.841 7.00005 10.8514ZM11.8608 18.4533C11.9516 18.0919 12 17.7123 12 17.32C12 14.8118 10.0215 12.82 7.63159 12.82C5.24167 12.82 3.26317 14.8118 3.26317 17.32C3.26317 17.824 3.34327 18.3066 3.49013 18.7562C3.49596 18.774 3.50193 18.7922 3.50798 18.8107C3.56423 18.9818 3.62798 19.1758 3.65358 19.3389C3.6776 19.492 3.68337 19.6098 3.67443 19.7645C3.66493 19.9286 3.62721 20.0975 3.59646 20.2352C3.59347 20.2486 3.59055 20.2617 3.58772 20.2745L3.28654 21.635L4.8595 21.4202C4.87103 21.4186 4.88285 21.417 4.89494 21.4153C5.01932 21.3981 5.17185 21.377 5.31816 21.378C5.45669 21.379 5.55977 21.3895 5.69564 21.4166C5.83975 21.4453 6.01261 21.5066 6.16601 21.561C6.18262 21.5669 6.19901 21.5727 6.2151 21.5784C6.65824 21.7348 7.1343 21.82 7.63159 21.82C9.63117 21.82 11.3427 20.4257 11.8485 18.5012C11.8522 18.4851 11.8564 18.4691 11.8608 18.4533Z" fill="#41403E"/>
</svg>
