<svg width="24" height="25" viewBox="0 0 24 25" fill="none" xmlns="http://www.w3.org/2000/svg">
<path fill-rule="evenodd" clip-rule="evenodd" d="M3.00054 12.32C3.00054 7.0733 7.25383 2.82001 12.5005 2.82001C17.7472 2.82001 22.0005 7.0733 22.0005 12.32C22.0005 17.5667 17.7472 21.82 12.5005 21.82C11.2989 21.82 10.1471 21.5964 9.08619 21.1877C8.99524 21.1526 8.94255 21.1324 8.9037 21.1184C8.89895 21.1167 8.89483 21.1153 8.89133 21.1141C8.89006 21.1142 8.88871 21.1143 8.88726 21.1144C8.85564 21.1168 8.81248 21.1212 8.72992 21.1297L3.6089 21.6591C3.59764 21.6602 3.58634 21.6614 3.57502 21.6626C3.36083 21.6848 3.13738 21.7079 2.95049 21.7101C2.76475 21.7123 2.42996 21.7018 2.10895 21.5059C1.73267 21.2764 1.47639 20.893 1.40816 20.4576C1.34996 20.0861 1.46825 19.7727 1.54127 19.6019C1.61474 19.4301 1.72156 19.2324 1.82395 19.043L3.47582 15.9855C3.54728 15.8532 3.58548 15.7821 3.61118 15.729C3.61253 15.7263 3.61378 15.7237 3.61493 15.7212C3.613 15.7143 3.61067 15.7061 3.60785 15.6966C3.58619 15.6233 3.55288 15.5239 3.49629 15.356C3.17452 14.4014 3.00054 13.38 3.00054 12.32ZM12.5005 4.82001C8.3584 4.82001 5.00053 8.17787 5.00053 12.32C5.00053 13.16 5.13824 13.9658 5.39152 14.7172C5.39957 14.7411 5.40787 14.7655 5.41632 14.7903C5.49747 15.0289 5.59278 15.309 5.61285 15.5625C5.63113 15.7936 5.61446 15.989 5.5573 16.2136C5.49477 16.4593 5.36771 16.6929 5.26464 16.8823C5.25466 16.9007 5.24489 16.9186 5.23544 16.9361L3.77964 19.6308L8.52428 19.1403C8.53504 19.1392 8.54609 19.138 8.55739 19.1369C8.6764 19.1244 8.82387 19.1089 8.9686 19.1144C9.10089 19.1195 9.21236 19.1343 9.34135 19.164C9.48295 19.1967 9.63656 19.2561 9.76612 19.3063C9.77941 19.3114 9.79245 19.3165 9.80519 19.3214C10.6404 19.6432 11.5486 19.82 12.5005 19.82C16.6427 19.82 20.0005 16.4621 20.0005 12.32C20.0005 8.17787 16.6427 4.82001 12.5005 4.82001ZM12.8325 9.33798C12.5419 9.28814 12.2431 9.34274 11.989 9.49212C11.7348 9.64149 11.5417 9.87599 11.4439 10.1541C11.2606 10.6751 10.6897 10.9489 10.1687 10.7656C9.6477 10.5823 9.37393 10.0114 9.5572 9.4904C9.81176 8.76675 10.3142 8.15654 10.9756 7.76785C11.6369 7.37916 12.4145 7.23708 13.1706 7.36677C13.9267 7.49646 14.6125 7.88955 15.1065 8.47641C15.6004 9.06314 15.8708 9.80569 15.8698 10.5726C15.8693 11.8524 14.9226 12.6751 14.3003 13.09C13.9586 13.3178 13.6241 13.4843 13.3789 13.5933C13.2549 13.6484 13.1501 13.6904 13.0741 13.7194C13.0359 13.7339 13.0048 13.7452 12.9817 13.7534L12.9533 13.7634L12.9438 13.7666L12.9403 13.7678L12.9389 13.7683C12.9386 13.7684 12.9377 13.7687 12.6215 12.82L12.9377 13.7687C12.4137 13.9433 11.8474 13.6602 11.6728 13.1362C11.4982 12.6125 11.7811 12.0464 12.3047 11.8715L12.3034 11.8719L12.3117 11.869C12.3216 11.8655 12.3387 11.8593 12.3621 11.8504C12.4089 11.8325 12.4799 11.8042 12.5666 11.7657C12.743 11.6873 12.9705 11.5728 13.1909 11.4259C13.6926 11.0914 13.8698 10.7903 13.8698 10.5717L13.8698 10.5702C13.8702 10.2754 13.7663 9.98995 13.5765 9.76441C13.3866 9.53888 13.1231 9.38782 12.8325 9.33798ZM11.6504 15.82C11.6504 15.2677 12.0982 14.82 12.6504 14.82H12.6604C13.2127 14.82 13.6604 15.2677 13.6604 15.82C13.6604 16.3723 13.2127 16.82 12.6604 16.82H12.6504C12.0982 16.82 11.6504 16.3723 11.6504 15.82Z" fill="#41403E"/>
</svg>
