<svg width="24" height="25" viewBox="0 0 24 25" fill="none" xmlns="http://www.w3.org/2000/svg">
<path fill-rule="evenodd" clip-rule="evenodd" d="M19.4147 5.40579C18.6337 4.62475 17.3674 4.62475 16.5863 5.40579C15.8053 6.18684 15.8053 7.45317 16.5863 8.23422C17.3674 9.01527 18.6337 9.01527 19.4147 8.23422C20.1958 7.45317 20.1958 6.18684 19.4147 5.40579ZM15.1721 3.99158C16.7342 2.42948 19.2669 2.42948 20.829 3.99158C22.3911 5.55368 22.3911 8.08634 20.829 9.64843C19.2669 11.2105 16.7342 11.2105 15.1721 9.64843C13.61 8.08634 13.61 5.55368 15.1721 3.99158ZM12.7037 3.7644C12.7545 4.31433 12.3499 4.80137 11.8 4.85223C7.98683 5.20484 5.00053 8.41426 5.00053 12.32C5.00053 13.16 5.13824 13.9658 5.39152 14.7172C5.39957 14.7411 5.40787 14.7655 5.41632 14.7903C5.49747 15.0289 5.59278 15.309 5.61285 15.5625C5.63113 15.7936 5.61446 15.989 5.5573 16.2136C5.49477 16.4593 5.36771 16.6929 5.26465 16.8823C5.25466 16.9007 5.24489 16.9186 5.23544 16.9361L3.77964 19.6308L8.52428 19.1403C8.53505 19.1392 8.54613 19.138 8.55745 19.1369C8.67637 19.1244 8.82391 19.1089 8.96862 19.1144C9.10088 19.1195 9.21235 19.1343 9.34135 19.164C9.48295 19.1967 9.63656 19.2561 9.76612 19.3063C9.77941 19.3114 9.79245 19.3165 9.80519 19.3214C10.6403 19.6432 11.5486 19.82 12.5005 19.82C16.4095 19.82 19.621 16.8288 19.9692 13.0111C20.0193 12.4611 20.5059 12.0559 21.0559 12.1061C21.6059 12.1562 22.0111 12.6428 21.9609 13.1928C21.5196 18.0309 17.4532 21.82 12.5005 21.82C11.2989 21.82 10.1471 21.5964 9.08619 21.1877C8.99524 21.1526 8.94255 21.1324 8.9037 21.1184C8.89895 21.1167 8.89484 21.1153 8.89134 21.1141C8.89006 21.1142 8.8887 21.1143 8.88725 21.1144C8.85561 21.1168 8.81244 21.1212 8.72992 21.1297C8.72991 21.1297 8.72993 21.1297 8.72992 21.1297L3.57502 21.6626C3.36083 21.6848 3.13738 21.7079 2.95049 21.7101C2.76474 21.7123 2.42996 21.7018 2.10895 21.5059C1.73267 21.2764 1.47639 20.893 1.40816 20.4576C1.34996 20.0861 1.46825 19.7727 1.54127 19.6019C1.61474 19.4301 1.72156 19.2324 1.82395 19.043L3.47582 15.9855C3.54728 15.8532 3.58548 15.7821 3.61118 15.729C3.61253 15.7263 3.61378 15.7237 3.61493 15.7212C3.613 15.7143 3.61066 15.7061 3.60784 15.6966C3.58619 15.6233 3.55288 15.5239 3.49629 15.356C3.17453 14.4014 3.00054 13.38 3.00054 12.32C3.00054 7.37145 6.78341 3.30759 11.6158 2.86072C12.1658 2.80987 12.6528 3.21446 12.7037 3.7644Z" fill="#41403E"/>
</svg>
