<svg width="24" height="25" viewBox="0 0 24 25" fill="none" xmlns="http://www.w3.org/2000/svg">
<path fill-rule="evenodd" clip-rule="evenodd" d="M3.00054 12.32C3.00054 7.0733 7.25383 2.82001 12.5005 2.82001C17.7472 2.82001 22.0005 7.0733 22.0005 12.32C22.0005 17.5667 17.7472 21.82 12.5005 21.82C11.2989 21.82 10.1471 21.5964 9.08619 21.1877C8.99524 21.1526 8.94255 21.1324 8.9037 21.1184C8.89895 21.1167 8.89483 21.1153 8.89133 21.1141C8.89006 21.1142 8.88871 21.1143 8.88726 21.1144C8.85564 21.1168 8.81248 21.1212 8.72992 21.1297L3.6089 21.6591C3.59764 21.6602 3.58634 21.6614 3.57502 21.6626C3.36083 21.6848 3.13738 21.7079 2.95049 21.7101C2.76475 21.7123 2.42996 21.7018 2.10895 21.5059C1.73267 21.2764 1.47639 20.893 1.40816 20.4576C1.34996 20.0861 1.46825 19.7727 1.54127 19.6019C1.61474 19.4301 1.72156 19.2324 1.82395 19.043L3.47582 15.9855C3.54728 15.8532 3.58548 15.7821 3.61118 15.729C3.61253 15.7263 3.61378 15.7237 3.61493 15.7212C3.613 15.7143 3.61067 15.7061 3.60785 15.6966C3.58619 15.6233 3.55288 15.5239 3.49629 15.356C3.17452 14.4014 3.00054 13.38 3.00054 12.32ZM12.5005 4.82001C8.3584 4.82001 5.00053 8.17787 5.00053 12.32C5.00053 13.16 5.13824 13.9658 5.39152 14.7172C5.39957 14.7411 5.40787 14.7655 5.41632 14.7903C5.49747 15.0289 5.59278 15.309 5.61285 15.5625C5.63113 15.7936 5.61446 15.989 5.5573 16.2136C5.49477 16.4593 5.36771 16.6929 5.26464 16.8823C5.25466 16.9007 5.24489 16.9186 5.23544 16.9361L3.77964 19.6308L8.52428 19.1403C8.53504 19.1392 8.54609 19.138 8.55739 19.1369C8.6764 19.1244 8.82387 19.1089 8.9686 19.1144C9.10089 19.1195 9.21236 19.1343 9.34135 19.164C9.48295 19.1967 9.63656 19.2561 9.76612 19.3063C9.77941 19.3114 9.79245 19.3165 9.80519 19.3214C10.6404 19.6432 11.5486 19.82 12.5005 19.82C16.6427 19.82 20.0005 16.4621 20.0005 12.32C20.0005 8.17787 16.6427 4.82001 12.5005 4.82001ZM7.00054 10.32C7.00054 9.76772 7.44825 9.32001 8.00054 9.32001H12.0005C12.5528 9.32001 13.0005 9.76772 13.0005 10.32C13.0005 10.8723 12.5528 11.32 12.0005 11.32H8.00054C7.44825 11.32 7.00054 10.8723 7.00054 10.32ZM7.00054 13.82C7.00054 13.2677 7.44825 12.82 8.00054 12.82H15.0005C15.5528 12.82 16.0005 13.2677 16.0005 13.82C16.0005 14.3723 15.5528 14.82 15.0005 14.82H8.00054C7.44825 14.82 7.00054 14.3723 7.00054 13.82Z" fill="#41403E"/>
</svg>
