<svg width="24" height="24" viewBox="0 0 24 24" fill="none" xmlns="http://www.w3.org/2000/svg">
<path fill-rule="evenodd" clip-rule="evenodd" d="M6.16174 3H17.8388C18.366 2.99998 18.8207 2.99997 19.1953 3.03057C19.5907 3.06287 19.9839 3.13419 20.3623 3.32698C20.9267 3.6146 21.3857 4.07354 21.6733 4.63803C21.8661 5.01641 21.9374 5.40963 21.9697 5.80497C22.0003 6.17954 22.0003 6.6343 22.0003 7.16144V15.2679C22.4536 15.5297 22.7931 15.9633 22.9321 16.4824C23.002 16.7432 23.0011 17.031 23.0004 17.2658C23.0004 17.2888 23.0003 17.3114 23.0003 17.3333C23.0003 17.371 23.0003 17.4083 23.0004 17.4452C23.0009 17.9529 23.0014 18.3909 22.8981 18.7765C22.6207 19.8117 21.812 20.6204 20.7767 20.8978C20.3912 21.0011 19.9532 21.0006 19.4455 21.0001C19.4086 21 19.3713 21 19.3336 21H4.66695C4.6293 21 4.59202 21 4.55511 21.0001C4.04739 21.0006 3.60936 21.0011 3.22383 20.8978C2.18855 20.6204 1.37991 19.8117 1.10251 18.7765C0.999208 18.3909 0.999672 17.9529 1.00021 17.4452C1.00025 17.4083 1.00029 17.371 1.00029 17.3333C1.00029 17.3114 1.00022 17.2888 1.00015 17.2658C0.999434 17.031 0.998557 16.7432 1.06844 16.4824C1.20752 15.9633 1.54694 15.5297 2.00029 15.2679V7.16146C2.00027 6.63431 2.00025 6.17955 2.03086 5.80497C2.06316 5.40963 2.13447 5.01641 2.32727 4.63803C2.61489 4.07354 3.07383 3.6146 3.63832 3.32698C4.0167 3.13419 4.40991 3.06287 4.80526 3.03057C5.17983 2.99997 5.63459 2.99998 6.16174 3ZM3.00403 17.0037C3.00726 17.0036 3.01076 17.0034 3.01454 17.0032C3.07987 17.0002 3.16956 17 3.33362 17H20.667C20.831 17 20.9207 17.0002 20.986 17.0032C20.9898 17.0034 20.9933 17.0036 20.9965 17.0037C20.9967 17.007 20.9969 17.0105 20.9971 17.0143C21 17.0796 21.0003 17.1693 21.0003 17.3333C21.0003 18.0177 20.9917 18.1637 20.9662 18.2588C20.8737 18.6039 20.6042 18.8735 20.2591 18.9659C20.164 18.9914 20.018 19 19.3336 19H4.66695C3.98259 19 3.83658 18.9914 3.74147 18.9659C3.39638 18.8735 3.12683 18.6039 3.03436 18.2588C3.00888 18.1637 3.00029 18.0177 3.00029 17.3333C3.00029 17.1693 3.00053 17.0796 3.00351 17.0143C3.00368 17.0105 3.00386 17.007 3.00403 17.0037ZM20.0003 15H4.00029V7.2C4.00029 6.62345 4.00107 6.25117 4.02421 5.96784C4.04641 5.69617 4.08409 5.59546 4.10928 5.54601C4.20515 5.35785 4.35813 5.20487 4.5463 5.109C4.59574 5.0838 4.69646 5.04612 4.96812 5.02393C5.25146 5.00078 5.62373 5 6.20029 5H17.8003C18.3768 5 18.7491 5.00078 19.0325 5.02393C19.3041 5.04612 19.4048 5.0838 19.4543 5.109C19.6424 5.20487 19.7954 5.35785 19.8913 5.54601C19.9165 5.59545 19.9542 5.69617 19.9764 5.96784C19.9995 6.25118 20.0003 6.62345 20.0003 7.2V15Z" fill="#41403E"/>
</svg>
