<svg width="24" height="24" viewBox="0 0 24 24" fill="none" xmlns="http://www.w3.org/2000/svg">
<path fill-rule="evenodd" clip-rule="evenodd" d="M5.16145 4L18.8385 4C19.3657 3.99998 19.8205 3.99997 20.195 4.03057C20.5904 4.06287 20.9836 4.13419 21.362 4.32698C21.9265 4.6146 22.3854 5.07354 22.673 5.63803C22.8658 6.01641 22.9371 6.40963 22.9694 6.80498C23 7.17954 23 7.6343 23 8.16144V15.8386C23 16.3657 23 16.8205 22.9694 17.195C22.9371 17.5904 22.8658 17.9836 22.673 18.362C22.3854 18.9265 21.9265 19.3854 21.362 19.673C20.9836 19.8658 20.5904 19.9371 20.195 19.9694C19.8205 20 19.3657 20 18.8386 20L5.16148 20C4.63432 20 4.17955 20 3.80497 19.9694C3.40963 19.9371 3.01641 19.8658 2.63803 19.673C2.07354 19.3854 1.6146 18.9265 1.32698 18.362C1.13419 17.9836 1.06287 17.5904 1.03057 17.195C0.999967 16.8205 0.999983 16.3657 1 15.8385L1 8.16146C0.999983 7.63431 0.999968 7.17955 1.03057 6.80497C1.06287 6.40963 1.13419 6.01641 1.32698 5.63803C1.6146 5.07354 2.07354 4.6146 2.63803 4.32698C3.01641 4.13419 3.40963 4.06287 3.80497 4.03057C4.17955 3.99997 4.63431 3.99998 5.16145 4ZM3.96784 6.02393C3.69617 6.04612 3.59546 6.0838 3.54601 6.109C3.35785 6.20487 3.20487 6.35785 3.109 6.54601C3.0838 6.59546 3.04612 6.69617 3.02393 6.96784C3.00078 7.25117 3 7.62345 3 8.2V15.8C3 16.3766 3.00078 16.7488 3.02393 17.0322C3.04612 17.3038 3.0838 17.4045 3.109 17.454C3.20487 17.6422 3.35785 17.7951 3.54601 17.891C3.59546 17.9162 3.69617 17.9539 3.96784 17.9761C4.25117 17.9992 4.62345 18 5.2 18L18.8 18C19.3766 18 19.7488 17.9992 20.0322 17.9761C20.3038 17.9539 20.4045 17.9162 20.454 17.891C20.6422 17.7951 20.7951 17.6422 20.891 17.454C20.9162 17.4045 20.9539 17.3038 20.9761 17.0322C20.9992 16.7488 21 16.3766 21 15.8V8.2C21 7.62345 20.9992 7.25118 20.9761 6.96784C20.9539 6.69617 20.9162 6.59546 20.891 6.54601C20.7951 6.35785 20.6422 6.20487 20.454 6.109C20.4045 6.0838 20.3038 6.04613 20.0322 6.02393C19.7488 6.00078 19.3766 6 18.8 6L5.2 6C4.62345 6 4.25118 6.00078 3.96784 6.02393Z" fill="#41403E"/>
<path fill-rule="evenodd" clip-rule="evenodd" d="M13 9C13 8.44772 13.4477 8 14 8H19C19.5523 8 20 8.44772 20 9C20 9.55228 19.5523 10 19 10H14C13.4477 10 13 9.55228 13 9Z" fill="#41403E"/>
<path fill-rule="evenodd" clip-rule="evenodd" d="M13 15C13 14.4477 13.4477 14 14 14H19C19.5523 14 20 14.4477 20 15C20 15.5523 19.5523 16 19 16H14C13.4477 16 13 15.5523 13 15Z" fill="#41403E"/>
<path fill-rule="evenodd" clip-rule="evenodd" d="M13 12C13 11.4477 13.4477 11 14 11H17C17.5523 11 18 11.4477 18 12C18 12.5523 17.5523 13 17 13H14C13.4477 13 13 12.5523 13 12Z" fill="#41403E"/>
<path fill-rule="evenodd" clip-rule="evenodd" d="M8 9C7.58579 9 7.25 9.33579 7.25 9.75C7.25 10.1642 7.58579 10.5 8 10.5C8.41421 10.5 8.75 10.1642 8.75 9.75C8.75 9.33579 8.41421 9 8 9ZM5.25 9.75C5.25 8.23122 6.48122 7 8 7C9.51878 7 10.75 8.23122 10.75 9.75C10.75 11.2688 9.51878 12.5 8 12.5C6.48122 12.5 5.25 11.2688 5.25 9.75Z" fill="#41403E"/>
<path fill-rule="evenodd" clip-rule="evenodd" d="M7.13007 12.9999C7.15982 12.9999 7.18955 13 7.21922 13H8.78172C8.81139 13 8.84112 12.9999 8.87087 12.9999C9.21395 12.9993 9.5609 12.9986 9.86925 13.0803L9.6593 13.8733L9.86925 13.0803C10.5451 13.2592 11.1464 13.7416 11.3912 14.4459L10.5072 14.7532L11.3912 14.4459C11.5033 14.7684 11.5019 15.1298 11.5007 15.4173C11.5006 15.4456 11.5005 15.4732 11.5005 15.5C11.5005 16.0523 11.0528 16.5 10.5005 16.5C9.94819 16.5 9.50047 16.0523 9.50047 15.5C9.50047 15.298 9.50007 15.1895 9.49546 15.1111C9.49502 15.1035 9.49456 15.0969 9.49412 15.0912C9.47944 15.0726 9.44196 15.0364 9.35888 15.0141C9.35376 15.0131 9.32497 15.0082 9.24982 15.0049C9.14616 15.0002 9.00869 15 8.78172 15H7.21922C6.99225 15 6.85478 15.0002 6.75112 15.0049C6.67597 15.0082 6.64718 15.0131 6.64206 15.0141C6.55898 15.0364 6.5215 15.0726 6.50682 15.0912C6.50638 15.0969 6.50592 15.1035 6.50548 15.1111C6.50087 15.1895 6.50047 15.298 6.50047 15.5C6.50047 16.0523 6.05276 16.5 5.50047 16.5C4.94819 16.5 4.50047 16.0523 4.50047 15.5C4.50047 15.4732 4.50036 15.4456 4.50024 15.4173C4.49908 15.1298 4.49762 14.7684 4.60973 14.4459C4.85452 13.7416 5.45581 13.2592 6.13169 13.0803C6.44004 12.9986 6.78699 12.9993 7.13007 12.9999Z" fill="#41403E"/>
</svg>
