<svg width="24" height="24" viewBox="0 0 24 24" fill="none" xmlns="http://www.w3.org/2000/svg">
<path fill-rule="evenodd" clip-rule="evenodd" d="M11.7142 1.08855C11.9039 1.06114 12.0966 1.06114 12.2863 1.08855C12.5049 1.12015 12.7084 1.197 12.8699 1.25803C12.8847 1.26361 12.8991 1.26906 12.9132 1.27434L18.275 3.28501C18.3189 3.30148 18.3624 3.31774 18.4056 3.33386C19.0234 3.56451 19.566 3.76707 19.9838 4.13529C20.3493 4.45741 20.6309 4.8637 20.8041 5.31905C21.0022 5.83956 21.0014 6.41867 21.0004 7.07812C21.0003 7.12421 21.0003 7.1707 21.0003 7.21759V12C21.0003 14.8266 19.463 17.1832 17.8012 18.9144C16.1283 20.6572 14.2143 21.8882 13.2022 22.4786C13.1888 22.4864 13.1752 22.4944 13.1612 22.5026C12.9765 22.6111 12.7368 22.7519 12.4196 22.8199C12.1602 22.8755 11.8404 22.8755 11.5809 22.8199C11.2638 22.7519 11.024 22.6111 10.8393 22.5026C10.8254 22.4944 10.8117 22.4864 10.7984 22.4786C9.78626 21.8882 7.87222 20.6572 6.19932 18.9144C4.53756 17.1832 3.00026 14.8266 3.00026 12V7.21759C3.00026 7.17071 3.0002 7.12422 3.00013 7.07812C2.99918 6.41868 2.99834 5.83956 3.19641 5.31905C3.36968 4.8637 3.65124 4.45741 4.01675 4.13529C4.43457 3.76707 4.97712 3.56451 5.59491 3.33386C5.63809 3.31773 5.68164 3.30148 5.72555 3.28501L11.0873 1.27434C11.1014 1.26906 11.1158 1.26361 11.1306 1.25803C11.2922 1.197 11.4956 1.12015 11.7142 1.08855ZM11.9972 3.07127C11.9564 3.08466 11.901 3.10522 11.7896 3.147L6.42779 5.15767C5.60255 5.46713 5.44374 5.54354 5.33909 5.63576C5.21726 5.74313 5.1234 5.87856 5.06564 6.03034C5.01604 6.16071 5.00026 6.33624 5.00026 7.21759V12C5.00026 14.0818 6.13995 15.9644 7.64218 17.5294C9.13327 19.0828 10.8702 20.2051 11.8062 20.7511C11.8634 20.7845 11.9047 20.8085 11.9405 20.8287C11.9687 20.8446 11.9874 20.8546 12.0003 20.8611C12.0131 20.8546 12.0318 20.8446 12.06 20.8287C12.0959 20.8085 12.1371 20.7845 12.1943 20.7511C13.1303 20.2051 14.8673 19.0828 16.3584 17.5294C17.8606 15.9644 19.0003 14.0818 19.0003 12V7.21759C19.0003 6.33624 18.9845 6.16071 18.9349 6.03034C18.8771 5.87856 18.7833 5.74313 18.6614 5.63576C18.5568 5.54354 18.398 5.46713 17.5727 5.15767L12.2109 3.147C12.0995 3.10522 12.0441 3.08466 12.0033 3.07127C12.0022 3.07092 12.0012 3.0706 12.0003 3.07028C11.9993 3.0706 11.9983 3.07092 11.9972 3.07127ZM12.0003 4.99999C12.5526 4.99999 13.0003 5.44771 13.0003 5.99999V6.49999H13.1336C14.2378 6.49999 15.1945 7.12458 15.6726 8.03505C15.9294 8.52401 15.7412 9.12855 15.2522 9.38533C14.7633 9.64211 14.1587 9.45389 13.902 8.96493C13.7557 8.68639 13.4656 8.49999 13.1336 8.49999H11.0003C10.448 8.49999 10.0003 8.94771 10.0003 9.49999C10.0003 10.0523 10.448 10.5 11.0003 10.5H13.0003C14.6571 10.5 16.0003 11.8431 16.0003 13.5C16.0003 15.1568 14.6571 16.5 13.0003 16.5V17C13.0003 17.5523 12.5526 18 12.0003 18C11.448 18 11.0003 17.5523 11.0003 17V16.5H10.8669C9.76272 16.5 8.80602 15.8754 8.32788 14.9649C8.0711 14.476 8.25932 13.8714 8.74828 13.6147C9.23724 13.3579 9.84178 13.5461 10.0986 14.0351C10.2448 14.3136 10.5349 14.5 10.8669 14.5H13.0003C13.5526 14.5 14.0003 14.0523 14.0003 13.5C14.0003 12.9477 13.5525 12.5 13.0003 12.5H11.0003C9.34341 12.5 8.00026 11.1568 8.00026 9.49999C8.00026 7.84314 9.34341 6.49999 11.0003 6.49999V5.99999C11.0003 5.44771 11.448 4.99999 12.0003 4.99999Z" fill="#41403E"/>
</svg>
