<svg width="24" height="24" viewBox="0 0 24 24" fill="none" xmlns="http://www.w3.org/2000/svg">
<path fill-rule="evenodd" clip-rule="evenodd" d="M11.714 1.08855C11.9037 1.06114 12.0963 1.06114 12.286 1.08855C12.5047 1.12015 12.7081 1.197 12.8696 1.25803C12.8844 1.26361 12.8989 1.26906 12.9129 1.27434L18.2747 3.28501C18.3186 3.30148 18.3622 3.31774 18.4054 3.33386C19.0232 3.56451 19.5657 3.76707 19.9835 4.13529C20.349 4.45741 20.6306 4.8637 20.8039 5.31905C21.0019 5.83956 21.0011 6.41867 21.0001 7.07812C21.0001 7.12421 21 7.1707 21 7.21759V12C21 12.8284 20.8672 13.619 20.6375 14.3652C20.4751 14.893 19.9154 15.1892 19.3876 15.0267C18.8598 14.8642 18.5636 14.3046 18.726 13.7768C18.9022 13.2045 19 12.6122 19 12V7.21759C19 6.33624 18.9842 6.16071 18.9346 6.03035C18.8769 5.87856 18.783 5.74313 18.6612 5.63576C18.5565 5.54354 18.3977 5.46714 17.5725 5.15767L12.2107 3.147C12.0993 3.10522 12.0439 3.08466 12.003 3.07127C12.002 3.07092 12.001 3.0706 12 3.07028C11.999 3.07059 11.998 3.07092 11.997 3.07127C11.9561 3.08466 11.9007 3.10522 11.7893 3.147L9.1598 4.13307C8.64268 4.32699 8.06627 4.06498 7.87235 3.54786C7.67843 3.03074 7.94044 2.45433 8.45756 2.26041L11.0871 1.27434C11.1011 1.26906 11.1156 1.26361 11.1304 1.25803C11.2919 1.197 11.4953 1.12015 11.714 1.08855ZM2.29289 2.29289C2.68342 1.90236 3.31658 1.90236 3.70711 2.29289L21.7071 20.2929C22.0976 20.6834 22.0976 21.3166 21.7071 21.7071C21.3166 22.0976 20.6834 22.0976 20.2929 21.7071L17.6527 19.0669C16.014 20.7312 14.1818 21.9068 13.2036 22.4776C13.1902 22.4855 13.1764 22.4935 13.1623 22.5018C12.9771 22.6106 12.7367 22.7518 12.4195 22.8199L12.2098 21.8421L12.4195 22.8199M11.5807 22.8199C11.2635 22.7519 11.0238 22.6111 10.8391 22.5026C10.8251 22.4944 10.8115 22.4864 10.7981 22.4786C9.786 21.8882 7.87196 20.6572 6.19906 18.9144C4.53729 17.1832 3 14.8266 3 12V5.77631C3 5.39077 3.10432 5.02288 3.29064 4.70485L2.29289 3.7071C1.90237 3.31658 1.90237 2.68341 2.29289 2.29289M5 6.41421L16.2385 17.6527C14.7791 19.1382 13.1116 20.2157 12.1956 20.7502C12.1382 20.7837 12.0967 20.8079 12.0606 20.8283C12.032 20.8443 12.013 20.8545 12 20.8611C11.9871 20.8546 11.9684 20.8446 11.9403 20.8287C11.9044 20.8085 11.8631 20.7845 11.8059 20.7511C10.87 20.2051 9.13301 19.0828 7.64191 17.5294C6.13969 15.9644 5 14.0818 5 12V6.41421Z" fill="#41403E"/>
</svg>
