<svg width="24" height="24" viewBox="0 0 24 24" fill="none" xmlns="http://www.w3.org/2000/svg">
<path fill-rule="evenodd" clip-rule="evenodd" d="M9.23862 4.48023C7.21139 3.88399 5.74123 4.15829 4.94972 4.9498C4.15821 5.74131 3.88391 7.21147 4.48015 9.2387C5.06425 11.2246 6.43237 13.5035 8.48525 15.5564C9.62376 16.6949 10.8318 17.6228 12.0208 18.3232C13.2098 17.6228 14.4178 16.6949 15.5563 15.5564C15.839 15.2738 16.109 14.9864 16.3662 14.6957C16.7321 14.282 17.364 14.2432 17.7777 14.6091C18.1914 14.975 18.2302 15.607 17.8643 16.0207C17.58 16.3421 17.282 16.6592 16.9705 16.9706C16.067 17.8742 15.112 18.6687 14.139 19.3409C14.3634 19.4238 14.5849 19.4974 14.803 19.5615C16.8302 20.1577 18.3004 19.8834 19.0919 19.0919C19.8834 18.3004 20.1577 16.8303 19.5614 14.803C19.3509 14.0871 19.0384 13.3332 18.6287 12.5654C18.6014 12.5228 18.5773 12.4783 18.5568 12.4323C17.8344 11.1121 16.8264 9.75546 15.5563 8.48533C14.4178 7.34683 13.2098 6.41894 12.0208 5.71858C10.8318 6.41894 9.62376 7.34683 8.48525 8.48533C8.18979 8.7808 7.90806 9.08142 7.64048 9.38566C7.27575 9.80037 6.64388 9.84088 6.22917 9.47615C5.81446 9.11141 5.77394 8.47955 6.13868 8.06483C6.43452 7.72845 6.74547 7.39669 7.07104 7.07112C7.9746 6.16757 8.92961 5.37302 9.90258 4.70082C9.67819 4.61793 9.45664 4.54436 9.23862 4.48023ZM12.0208 3.44354C11.273 3.07096 10.5288 2.77498 9.80295 2.5615C7.47951 1.87814 5.08715 1.98395 3.53551 3.53559C1.98387 5.08722 1.87806 7.47959 2.56142 9.80303C2.77491 10.5289 3.07089 11.2731 3.44348 12.0209C2.69374 13.5258 2.2422 15.0401 2.16948 16.4322C2.089 17.973 2.47418 19.4448 3.53551 20.5062C5.08715 22.0578 7.47951 22.1636 9.80295 21.4802C10.5288 21.2668 11.273 20.9708 12.0208 20.5982C12.7686 20.9708 13.5128 21.2668 14.2386 21.4802C16.5621 22.1636 18.9544 22.0578 20.5061 20.5062C22.0577 18.9545 22.1635 16.5621 21.4802 14.2387C21.2667 13.5129 20.9707 12.7686 20.5981 12.0208C21.3473 10.5171 21.7987 9.00391 21.8719 7.61271C21.9531 6.07078 21.5681 4.59766 20.5061 3.53559C18.9544 1.98395 16.5621 1.87814 14.2386 2.5615C13.5128 2.77498 12.7686 3.07096 12.0208 3.44354ZM14.139 4.70082C15.112 5.37302 16.067 6.16757 16.9705 7.07112C17.8741 7.97468 18.6686 8.9297 19.3409 9.90268C19.6596 9.03963 19.8367 8.229 19.8747 7.50756C19.9359 6.34474 19.6373 5.49524 19.0919 4.9498C18.3004 4.15829 16.8302 3.88399 14.803 4.48023C14.5849 4.54436 14.3634 4.61793 14.139 4.70082ZM9.90258 19.3409C8.9296 18.6687 7.97459 17.8742 7.07104 16.9706C6.16748 16.0671 5.37293 15.112 4.70072 14.1391C4.38159 15.0031 4.20447 15.8145 4.16676 16.5366C4.10608 17.6982 4.40465 18.5469 4.94972 19.0919C5.74123 19.8834 7.21139 20.1577 9.23862 19.5615C9.45664 19.4974 9.67819 19.4238 9.90258 19.3409ZM9.99997 12C9.99997 10.8954 10.8954 9.99998 12 9.99998C13.1045 9.99998 14 10.8954 14 12C14 13.1046 13.1045 14 12 14C10.8954 14 9.99997 13.1046 9.99997 12Z" fill="#41403E"/>
</svg>
