<svg width="24" height="24" viewBox="0 0 24 24" fill="none" xmlns="http://www.w3.org/2000/svg">
<path fill-rule="evenodd" clip-rule="evenodd" d="M3 2C1.89543 2 1 2.89543 1 4V7C1 7.93192 1.63739 8.71497 2.5 8.93699L2.5 16.2413C2.49999 17.0463 2.49998 17.7106 2.54419 18.2518C2.59012 18.8139 2.68868 19.3306 2.93597 19.816C3.31947 20.5686 3.93139 21.1805 4.68404 21.564C5.16937 21.8113 5.68608 21.9099 6.24817 21.9558C6.78938 22 7.45374 22 8.25872 22H15.7413C16.5463 22 17.2106 22 17.7518 21.9558C18.3139 21.9099 18.8306 21.8113 19.316 21.564C20.0686 21.1805 20.6805 20.5686 21.064 19.816C21.3113 19.3306 21.4099 18.8139 21.4558 18.2518C21.5 17.7106 21.5 17.0463 21.5 16.2413V8.93699C22.3626 8.71497 23 7.93192 23 7V4C23 2.89543 22.1046 2 21 2H3ZM19.5 9V16.2C19.5 17.0566 19.4992 17.6389 19.4624 18.089C19.4266 18.5274 19.3617 18.7516 19.282 18.908C19.0903 19.2843 18.7843 19.5903 18.408 19.782C18.2516 19.8617 18.0274 19.9266 17.589 19.9624C17.1389 19.9992 16.5566 20 15.7 20H8.3C7.44342 20 6.86113 19.9992 6.41104 19.9624C5.97262 19.9266 5.74842 19.8617 5.59202 19.782C5.2157 19.5903 4.90973 19.2843 4.71799 18.908C4.6383 18.7516 4.57337 18.5274 4.53755 18.089C4.50078 17.6389 4.5 17.0566 4.5 16.2V9H19.5ZM20.5 7H21V4H3V7H3.5H20.5ZM9.6 10.5L9.5681 10.5C9.31572 10.5 9.06993 10.4999 8.86177 10.5169C8.63318 10.5356 8.36344 10.5797 8.09202 10.718C7.7157 10.9097 7.40974 11.2157 7.21799 11.592C7.07969 11.8634 7.03562 12.1332 7.01695 12.3618C6.99994 12.5699 6.99997 12.8157 7 13.0681V13.0681L7 13.1V13.9L7 13.9319V13.9319C6.99997 14.1843 6.99994 14.4301 7.01695 14.6382C7.03562 14.8668 7.07969 15.1366 7.21799 15.408C7.40973 15.7843 7.7157 16.0903 8.09202 16.282C8.36344 16.4203 8.63318 16.4644 8.86177 16.4831C9.06993 16.5001 9.31573 16.5 9.56812 16.5H14.4319C14.6843 16.5 14.9301 16.5001 15.1382 16.4831C15.3668 16.4644 15.6366 16.4203 15.908 16.282C16.2843 16.0903 16.5903 15.7843 16.782 15.408C16.9203 15.1366 16.9644 14.8668 16.9831 14.6382C17.0001 14.4301 17 14.1843 17 13.9319V13.0681C17 12.8157 17.0001 12.5699 16.9831 12.3618C16.9644 12.1332 16.9203 11.8634 16.782 11.592C16.5903 11.2157 16.2843 10.9097 15.908 10.718C15.6366 10.5797 15.3668 10.5356 15.1382 10.5169C14.9301 10.4999 14.6843 10.5 14.4319 10.5L9.6 10.5ZM9.0103 12.5246L9.01145 12.5114L9.02464 12.5103C9.14122 12.5008 9.30347 12.5 9.6 12.5H14.4C14.6965 12.5 14.8588 12.5008 14.9754 12.5103L14.9886 12.5114L14.9897 12.5246C14.9992 12.6412 15 12.8035 15 13.1V13.9C15 14.1965 14.9992 14.3588 14.9897 14.4754L14.9886 14.4886L14.9754 14.4897C14.8588 14.4992 14.6965 14.5 14.4 14.5H9.6C9.30347 14.5 9.14122 14.4992 9.02464 14.4897L9.01145 14.4886L9.0103 14.4754C9.00078 14.3588 9 14.1965 9 13.9V13.1C9 12.8035 9.00078 12.6412 9.0103 12.5246Z" fill="#41403E"/>
</svg>
