<svg width="24" height="24" viewBox="0 0 24 24" fill="none" xmlns="http://www.w3.org/2000/svg">
<path fill-rule="evenodd" clip-rule="evenodd" d="M11.8624 1.99993C11.9076 1.99995 11.9535 1.99997 12 1.99997C12.0465 1.99997 12.0924 1.99995 12.1376 1.99993C12.933 1.99949 13.5236 1.99917 14.0353 2.13627C15.4156 2.50614 16.4938 3.58433 16.8637 4.9647C16.9461 5.27217 16.9789 5.60816 16.9918 5.99997L18.8385 5.99997C19.3657 5.99996 19.8205 5.99994 20.195 6.03054C20.5904 6.06284 20.9836 6.13416 21.362 6.32695C21.9265 6.61458 22.3854 7.07352 22.673 7.638C22.8658 8.01638 22.9371 8.4096 22.9694 8.80495C23 9.17951 23 9.63427 23 10.1614V17.8385C23 18.3657 23 18.8204 22.9694 19.195C22.9371 19.5903 22.8658 19.9836 22.673 20.3619C22.3854 20.9264 21.9265 21.3854 21.362 21.673C20.9836 21.8658 20.5904 21.9371 20.195 21.9694C19.8205 22 19.3657 22 18.8386 22H5.16144C4.6343 22 4.17954 22 3.80497 21.9694C3.40963 21.9371 3.01641 21.8658 2.63803 21.673C2.07354 21.3854 1.6146 20.9264 1.32698 20.3619C1.13419 19.9836 1.06287 19.5903 1.03057 19.195C0.999967 18.8204 0.999983 18.3657 1 17.8385V10.1614C0.999983 9.63428 0.999967 9.17952 1.03057 8.80495C1.06287 8.4096 1.13419 8.01638 1.32698 7.638C1.6146 7.07352 2.07354 6.61457 2.63803 6.32695C3.01641 6.13416 3.40963 6.06284 3.80497 6.03054C4.17955 5.99994 4.63431 5.99996 5.16146 5.99997L7.00822 5.99997C7.02115 5.60816 7.05391 5.27216 7.1363 4.9647C7.50617 3.58433 8.58436 2.50614 9.96473 2.13627C10.4764 1.99917 11.067 1.99949 11.8624 1.99993ZM7 7.99997H5.2C4.62345 7.99997 4.25117 8.00075 3.96784 8.0239C3.69617 8.0461 3.59546 8.08378 3.54601 8.10897C3.35785 8.20484 3.20487 8.35782 3.109 8.54598C3.0838 8.59543 3.04612 8.69615 3.02393 8.96781C3.00078 9.25115 3 9.62342 3 10.2V17.8C3 18.3765 3.00078 18.7488 3.02393 19.0321C3.04612 19.3038 3.0838 19.4045 3.109 19.454C3.20487 19.6421 3.35785 19.7951 3.54601 19.891C3.59546 19.9162 3.69617 19.9539 3.96784 19.976C4.25117 19.9992 4.62345 20 5.2 20H7V7.99997ZM9 20V7.99997H15V20H9ZM17 20H18.8C19.3766 20 19.7488 19.9992 20.0322 19.976C20.3038 19.9539 20.4045 19.9162 20.454 19.891C20.6422 19.7951 20.7951 19.6421 20.891 19.454C20.9162 19.4045 20.9539 19.3038 20.9761 19.0321C20.9992 18.7488 21 18.3765 21 17.8V10.2C21 9.62342 20.9992 9.25115 20.9761 8.96781C20.9539 8.69615 20.9162 8.59543 20.891 8.54598C20.7951 8.35782 20.6422 8.20484 20.454 8.10897C20.4045 8.08378 20.3038 8.0461 20.0322 8.0239C19.7488 8.00075 19.3766 7.99997 18.8 7.99997H17V20ZM14.9901 5.99997H9.00986C9.01905 5.7424 9.03632 5.60113 9.06815 5.48234C9.25308 4.79215 9.79218 4.25306 10.4824 4.06812C10.7046 4.00856 11.0056 3.99997 12 3.99997C12.9944 3.99997 13.2954 4.00856 13.5176 4.06812C14.2078 4.25306 14.7469 4.79215 14.9319 5.48234C14.9637 5.60113 14.981 5.7424 14.9901 5.99997Z" fill="#41403E"/>
</svg>
