<svg width="24" height="24" viewBox="0 0 24 24" fill="none" xmlns="http://www.w3.org/2000/svg">
<path fill-rule="evenodd" clip-rule="evenodd" d="M12.0002 1C12.5525 1 13.0002 1.44772 13.0002 2V3.14494C14.4459 3.57521 15.5002 4.91449 15.5002 6.5C15.5002 7.42821 15.1388 8.27202 14.5492 8.89846L18.5701 15.8234C19.1823 15.3668 19.7455 14.8478 20.2504 14.2757C20.6159 13.8617 21.2478 13.8223 21.6619 14.1877C22.076 14.5532 22.1154 15.1851 21.7499 15.5992C21.1034 16.3317 20.3754 16.9909 19.58 17.5626L21.865 21.4979C22.1423 21.9755 21.9799 22.5875 21.5023 22.8648C21.0247 23.1421 20.4127 22.9797 20.1354 22.5021L17.8707 18.6019C16.1073 19.4959 14.1124 20 12.0002 20C9.88789 20 7.893 19.4959 6.12963 18.6019L3.86495 22.5021C3.58763 22.9797 2.97564 23.1421 2.49803 22.8648C2.02042 22.5875 1.85805 21.9755 2.13538 21.4979L4.42037 17.5626C3.62498 16.9909 2.89693 16.3317 2.25043 15.5992C1.88496 15.1851 1.92436 14.5532 2.33843 14.1877C2.7525 13.8223 3.38444 13.8617 3.7499 14.2757C4.25478 14.8478 4.81799 15.3668 5.4302 15.8234L9.45116 8.89846C8.86149 8.27202 8.50016 7.42821 8.50016 6.5C8.50016 4.91449 9.55442 3.57521 11.0002 3.14494V2C11.0002 1.44772 11.4479 1 12.0002 1ZM11.2702 7.81073C11.2626 7.80603 11.2549 7.80142 11.2471 7.7969C11.2396 7.79254 11.2321 7.78828 11.2245 7.78414C10.7903 7.52133 10.5002 7.04455 10.5002 6.5C10.5002 5.67157 11.1717 5 12.0002 5C12.8286 5 13.5002 5.67157 13.5002 6.5C13.5002 7.04455 13.21 7.52133 12.7758 7.78414C12.7683 7.78828 12.7607 7.79254 12.7532 7.7969C12.7454 7.80142 12.7377 7.80603 12.7301 7.81073C12.5141 7.9313 12.2651 8 12.0002 8C11.7352 8 11.4863 7.9313 11.2702 7.81073ZM11.1803 9.90345L7.1358 16.869C8.60247 17.5933 10.2536 18 12.0002 18C13.7467 18 15.3979 17.5933 16.8645 16.869L12.82 9.90345C12.557 9.96657 12.2825 10 12.0002 10C11.7178 10 11.4433 9.96657 11.1803 9.90345Z" fill="#41403E"/>
</svg>
