<svg width="24" height="24" viewBox="0 0 24 24" fill="none" xmlns="http://www.w3.org/2000/svg">
<path fill-rule="evenodd" clip-rule="evenodd" d="M13 3.01985C12.8143 3.00293 12.5391 3 12.0118 3H8.8C7.94342 3 7.36113 3.00078 6.91104 3.03755C6.47262 3.07337 6.24842 3.1383 6.09202 3.21799C5.7157 3.40974 5.40973 3.7157 5.21799 4.09202C5.1383 4.24842 5.07337 4.47262 5.03755 4.91104C5.00078 5.36113 5 5.94342 5 6.8V17.2C5 18.0566 5.00078 18.6389 5.03755 19.089C5.07337 19.5274 5.1383 19.7516 5.21799 19.908C5.40973 20.2843 5.7157 20.5903 6.09202 20.782C6.24842 20.8617 6.47262 20.9266 6.91104 20.9625C7.36113 20.9992 7.94342 21 8.8 21H15.2C16.0566 21 16.6389 20.9992 17.089 20.9625C17.5274 20.9266 17.7516 20.8617 17.908 20.782C18.2843 20.5903 18.5903 20.2843 18.782 19.908C18.8617 19.7516 18.9266 19.5274 18.9624 19.089C18.9992 18.6389 19 18.0566 19 17.2V9.98823C19 9.46093 18.9971 9.18577 18.9802 9.00007L15.5681 9.00008C15.3157 9.00011 15.0699 9.00014 14.8618 8.98313C14.6332 8.96445 14.3634 8.92038 14.092 8.78209C13.7157 8.59034 13.4097 8.28438 13.218 7.90805C13.0797 7.63663 13.0356 7.3669 13.0169 7.1383C12.9999 6.93014 13 6.68434 13 6.43196L13 3.01985ZM14.3936 1.34997C14.1677 1.24871 13.9326 1.16848 13.6911 1.11052C13.2284 0.999439 12.7487 0.999668 12.1137 0.99997C12.0801 0.999986 12.0462 1 12.0118 1L8.7587 1C7.95373 0.999989 7.28937 0.999978 6.74817 1.0442C6.18608 1.09012 5.66937 1.18869 5.18404 1.43598C4.43139 1.81947 3.81947 2.43139 3.43597 3.18404C3.18868 3.66938 3.09012 4.18608 3.04419 4.74818C2.99998 5.28937 2.99999 5.95373 3 6.7587V17.2413C2.99999 18.0463 2.99998 18.7106 3.04419 19.2518C3.09012 19.8139 3.18868 20.3306 3.43597 20.816C3.81947 21.5686 4.43139 22.1805 5.18404 22.564C5.66937 22.8113 6.18608 22.9099 6.74817 22.9558C7.28936 23 7.95372 23 8.75868 23H15.2413C16.0463 23 16.7106 23 17.2518 22.9558C17.8139 22.9099 18.3306 22.8113 18.816 22.564C19.5686 22.1805 20.1805 21.5686 20.564 20.816C20.8113 20.3306 20.9099 19.8139 20.9558 19.2518C21 18.7106 21 18.0463 21 17.2413V9.98823C21 9.95382 21 9.91987 21 9.88636C21.0003 9.25135 21.0006 8.77156 20.8895 8.30886C20.8317 8.06813 20.7518 7.83366 20.6509 7.60837C20.6447 7.59369 20.6381 7.57919 20.6311 7.56488C20.5658 7.42349 20.4922 7.28583 20.4106 7.15265C20.1619 6.74692 19.8225 6.40782 19.3733 5.95901C19.3496 5.93533 19.3255 5.91133 19.3012 5.88701L16.113 2.69878C16.0887 2.67445 16.0647 2.65043 16.041 2.62672C15.5922 2.1775 15.2531 1.83807 14.8474 1.58944C14.7136 1.5075 14.5754 1.4336 14.4334 1.36808C14.4203 1.36176 14.407 1.35572 14.3936 1.34997ZM15 4.41422V6.40007C15 6.6966 15.0008 6.85885 15.0103 6.97544C15.0107 6.98008 15.0111 6.98447 15.0114 6.98862C15.0156 6.98901 15.02 6.98939 15.0246 6.98977C15.1412 6.9993 15.3035 7.00007 15.6 7.00007H17.5859L15 4.41422ZM12 9.5C12.5523 9.5 13 9.94772 13 10.5V18C13 18.5523 12.5523 19 12 19C11.4477 19 11 18.5523 11 18V10.5C11 9.94772 11.4477 9.5 12 9.5ZM16 12C16.5523 12 17 12.4477 17 13V18C17 18.5523 16.5523 19 16 19C15.4477 19 15 18.5523 15 18V13C15 12.4477 15.4477 12 16 12ZM8 14C8.55229 14 9 14.4477 9 15V18C9 18.5523 8.55229 19 8 19C7.44772 19 7 18.5523 7 18V15C7 14.4477 7.44772 14 8 14Z" fill="#41403E"/>
</svg>
