<svg width="24" height="24" viewBox="0 0 24 24" fill="none" xmlns="http://www.w3.org/2000/svg">
<path fill-rule="evenodd" clip-rule="evenodd" d="M8.5 11.5C6.01472 11.5 4 13.5147 4 16C4 18.4853 6.01472 20.5 8.5 20.5C10.6051 20.5 12.3726 19.0545 12.8641 17.1019L12.6 17.3C12.1582 17.6314 11.5314 17.5418 11.2 17.1C10.8686 16.6582 10.9582 16.0314 11.4 15.7L13.4 14.2C13.7924 13.9057 14.3402 13.9394 14.6935 14.2796L16.4364 15.9574C16.8343 16.3404 16.8463 16.9734 16.4633 17.3713C16.0802 17.7692 15.4472 17.7812 15.0493 17.3982L14.8823 17.2375C14.3045 20.2355 11.6667 22.5 8.5 22.5C4.91015 22.5 2 19.5899 2 16C2 12.4101 4.91015 9.5 8.5 9.5C10.0705 9.5 11.5133 10.0582 12.6368 10.9861C13.0626 11.3378 13.1227 11.9681 12.771 12.3939C12.4194 12.8198 11.7891 12.8799 11.3632 12.5282C10.5849 11.8854 9.58877 11.5 8.5 11.5ZM8.5 12.5C9.05228 12.5 9.5 12.9477 9.5 13.5V15.625L10.2888 16.5289C10.6519 16.945 10.6089 17.5767 10.1928 17.9398C9.77672 18.303 9.14501 18.26 8.78188 17.8439L7.74655 16.6575C7.58759 16.4754 7.5 16.2418 7.5 16V13.5C7.5 12.9477 7.94771 12.5 8.5 12.5Z" fill="#41403E"/>
<path fill-rule="evenodd" clip-rule="evenodd" d="M13 3.01985C12.8143 3.00293 12.5391 3 12.0118 3H8.8C7.94342 3 7.36113 3.00078 6.91104 3.03755C6.47262 3.07337 6.24842 3.1383 6.09202 3.21799C5.7157 3.40974 5.40973 3.7157 5.21799 4.09202C5.1383 4.24842 5.07337 4.47262 5.03755 4.91104C5.00078 5.36113 5 5.94342 5 6.8V8C5 8.55229 4.55229 9 4 9C3.44772 9 3 8.55229 3 8L3 6.7587C2.99999 5.95373 2.99998 5.28937 3.04419 4.74818C3.09012 4.18608 3.18868 3.66938 3.43597 3.18404C3.81947 2.43139 4.43139 1.81947 5.18404 1.43598C5.66937 1.18869 6.18608 1.09012 6.74817 1.0442C7.28937 0.999978 7.95373 0.999989 8.7587 1L12.0118 1C12.0462 1 12.0801 0.999986 12.1137 0.99997C12.7487 0.999668 13.2284 0.999439 13.6911 1.11052C13.9314 1.1682 14.1654 1.24792 14.3903 1.34848C14.4059 1.35513 14.4214 1.36216 14.4367 1.36958C14.5775 1.43473 14.7146 1.50812 14.8474 1.58944C15.2531 1.83807 15.5922 2.1775 16.041 2.62672C16.0647 2.65043 16.0887 2.67445 16.113 2.69878L19.3012 5.88701C19.3255 5.91133 19.3496 5.93533 19.3733 5.95901C19.8225 6.40782 20.1619 6.74692 20.4106 7.15265C20.4919 7.28536 20.5653 7.42251 20.6304 7.56337C20.6378 7.57861 20.6449 7.59407 20.6515 7.60973C20.7521 7.8346 20.8318 8.06862 20.8895 8.30886C21.0006 8.77156 21.0003 9.25135 21 9.88636C21 9.91987 21 9.95382 21 9.98823V17.2413C21 18.0463 21 18.7106 20.9558 19.2518C20.9099 19.8139 20.8113 20.3306 20.564 20.816C20.1805 21.5686 19.5686 22.1805 18.816 22.564C17.9574 23.0015 17.2696 23.0011 15.8151 23.0001C15.7452 23 15.6735 23 15.6 23C15.0477 23 14.6 22.5523 14.6 22C14.6 21.4477 15.0477 21 15.6 21C17.3564 21 17.5244 20.9775 17.908 20.782C18.2843 20.5903 18.5903 20.2843 18.782 19.908C18.8617 19.7516 18.9266 19.5274 18.9624 19.089C18.9992 18.6389 19 18.0566 19 17.2V9.98823C19 9.46086 18.9971 9.1857 18.9802 9L15.5681 9C15.3157 9.00003 15.0699 9.00006 14.8618 8.98306C14.6332 8.96438 14.3634 8.92031 14.092 8.78201C13.7157 8.59027 13.4097 8.28431 13.218 7.90798C13.0797 7.63656 13.0356 7.36683 13.0169 7.13823C12.9999 6.93007 13 6.68427 13 6.43188L13 3.01985ZM15 4.41422V6.4C15 6.69653 15.0008 6.85878 15.0103 6.97537C15.0107 6.98001 15.0111 6.9844 15.0114 6.98855C15.0156 6.98894 15.02 6.98932 15.0246 6.9897C15.1412 6.99922 15.3035 7 15.6 7H17.5858L15 4.41422Z" fill="#41403E"/>
</svg>
