<svg width="24" height="24" viewBox="0 0 24 24" fill="none" xmlns="http://www.w3.org/2000/svg">
<path fill-rule="evenodd" clip-rule="evenodd" d="M10.09 4.05466C9.96938 4.01305 9.8127 4 9.02229 4H5.2C4.62345 4 4.25117 4.00078 3.96784 4.02393C3.69617 4.04612 3.59546 4.0838 3.54601 4.109C3.35785 4.20487 3.20487 4.35785 3.109 4.54601C3.0838 4.59546 3.04612 4.69617 3.02393 4.96784C3.00357 5.21698 3.00052 5.5349 3.00007 6H11.382L10.99 5.21613C10.6366 4.50918 10.5548 4.37487 10.4637 4.28558C10.3578 4.18187 10.2301 4.10299 10.09 4.05466ZM13.618 6L12.7789 4.32171C12.7602 4.28432 12.7417 4.24722 12.7234 4.21043C12.4586 3.67919 12.2258 3.212 11.8631 2.85675C11.5454 2.5456 11.1625 2.30896 10.7421 2.16397C10.2622 1.99842 9.74022 1.99911 9.14666 1.99989C9.10555 1.99995 9.0641 2 9.02229 2L5.16146 2C4.63431 1.99998 4.17955 1.99997 3.80497 2.03057C3.40963 2.06287 3.01641 2.13419 2.63803 2.32698C2.07354 2.6146 1.6146 3.07354 1.32698 3.63803C1.13419 4.01641 1.06287 4.40963 1.03057 4.80497C0.999967 5.17955 0.999983 5.63431 1 6.16146L1 16.2413C0.999989 17.0463 0.999978 17.7106 1.0442 18.2518C1.09012 18.8139 1.18868 19.3306 1.43598 19.816C1.81947 20.5686 2.43139 21.1805 3.18404 21.564C3.66938 21.8113 4.18608 21.9099 4.74818 21.9558C5.28937 22 5.95372 22 6.75868 22H17.2413C18.0463 22 18.7106 22 19.2518 21.9558C19.8139 21.9099 20.3306 21.8113 20.816 21.564C21.5686 21.1805 22.1805 20.5686 22.564 19.816C22.8113 19.3306 22.9099 18.8139 22.9558 18.2518C23 17.7106 23 17.0463 23 16.2413V11.7587C23 10.9537 23 10.2894 22.9558 9.74818C22.9099 9.18608 22.8113 8.66938 22.564 8.18404C22.1805 7.43139 21.5686 6.81947 20.816 6.43598C20.3306 6.18869 19.8139 6.09012 19.2518 6.0442C18.7106 5.99998 18.0463 5.99999 17.2413 6L13.618 6ZM12.9799 8C12.9938 8.00029 13.0077 8.00029 13.0217 8H17.2C18.0566 8 18.6389 8.00078 19.089 8.03755C19.5274 8.07337 19.7516 8.1383 19.908 8.21799C20.2843 8.40974 20.5903 8.7157 20.782 9.09202C20.8617 9.24842 20.9266 9.47262 20.9625 9.91104C20.9992 10.3611 21 10.9434 21 11.8V16.2C21 17.0566 20.9992 17.6389 20.9625 18.089C20.9266 18.5274 20.8617 18.7516 20.782 18.908C20.5903 19.2843 20.2843 19.5903 19.908 19.782C19.7516 19.8617 19.5274 19.9266 19.089 19.9625C18.6389 19.9992 18.0566 20 17.2 20H6.8C5.94342 20 5.36113 19.9992 4.91104 19.9625C4.47262 19.9266 4.24842 19.8617 4.09202 19.782C3.7157 19.5903 3.40974 19.2843 3.21799 18.908C3.1383 18.7516 3.07337 18.5274 3.03755 18.089C3.00078 17.6389 3 17.0566 3 16.2V8H12.9799ZM12.926 11.6944C12.7362 11.4689 12.4726 11.3178 12.1821 11.268C11.8915 11.2181 11.5927 11.2727 11.3385 11.4221C11.0844 11.5715 10.8913 11.806 10.7934 12.0841C10.6102 12.6051 10.0392 12.8788 9.51826 12.6956C8.99727 12.5123 8.72349 11.9414 8.90676 11.4204C9.16133 10.6967 9.66379 10.0865 10.3252 9.69784C10.9865 9.30916 11.7641 9.16707 12.5202 9.29676C13.2763 9.42645 13.962 9.81954 14.4561 10.4064C14.95 10.9931 15.2204 11.7357 15.2193 12.5026C15.2189 13.7824 14.2722 14.6051 13.6499 15.02C13.3082 15.2478 12.9737 15.4143 12.7285 15.5233C12.6044 15.5784 12.4997 15.6204 12.4236 15.6494C12.3855 15.6639 12.3543 15.6752 12.3313 15.6834L12.3028 15.6934L12.2934 15.6966L12.2899 15.6978L12.2885 15.6983C12.2882 15.6984 12.2872 15.6987 11.971 14.75L12.2872 15.6987C11.7633 15.8733 11.197 15.5902 11.0223 15.0662C10.8477 14.5425 11.1307 13.9763 11.6543 13.8015L11.653 13.8019L11.6613 13.799C11.6711 13.7955 11.6883 13.7893 11.7116 13.7804C11.7585 13.7625 11.8294 13.7342 11.9162 13.6957C12.0925 13.6173 12.3201 13.5028 12.5405 13.3559C13.0422 13.0214 13.2193 12.7203 13.2193 12.5017L13.2193 12.5002C13.2198 12.2054 13.1159 11.9199 12.926 11.6944ZM13.01 17.75C13.01 18.3023 12.5623 18.75 12.01 18.75H12C11.4477 18.75 11 18.3023 11 17.75C11 17.1977 11.4477 16.75 12 16.75H12.01C12.5623 16.75 13.01 17.1977 13.01 17.75Z" fill="#41403E"/>
</svg>
