<svg width="24" height="24" viewBox="0 0 24 24" fill="none" xmlns="http://www.w3.org/2000/svg">
<path fill-rule="evenodd" clip-rule="evenodd" d="M10.09 4.05466C9.96938 4.01305 9.8127 4 9.02229 4H5.2C4.62345 4 4.25117 4.00078 3.96784 4.02393C3.69617 4.04612 3.59546 4.0838 3.54601 4.109C3.35785 4.20487 3.20487 4.35785 3.109 4.54601C3.0838 4.59546 3.04612 4.69617 3.02393 4.96784C3.00357 5.21698 3.00052 5.5349 3.00007 6H11.382L10.99 5.21613C10.6366 4.50918 10.5548 4.37487 10.4637 4.28558C10.3578 4.18187 10.2301 4.10299 10.09 4.05466ZM13.618 6L12.7789 4.32171C12.7602 4.28432 12.7417 4.24722 12.7234 4.21043C12.4586 3.67919 12.2258 3.212 11.8631 2.85675C11.5454 2.5456 11.1625 2.30896 10.7421 2.16397C10.2622 1.99842 9.74022 1.99911 9.14666 1.99989C9.10555 1.99995 9.0641 2 9.02229 2L5.16146 2C4.63431 1.99998 4.17955 1.99997 3.80497 2.03057C3.40963 2.06287 3.01641 2.13419 2.63803 2.32698C2.07354 2.6146 1.6146 3.07354 1.32698 3.63803C1.13419 4.01641 1.06287 4.40963 1.03057 4.80497C0.999967 5.17955 0.999983 5.63431 1 6.16146L1 16.2413C0.999989 17.0463 0.999978 17.7106 1.0442 18.2518C1.09012 18.8139 1.18868 19.3306 1.43598 19.816C1.81947 20.5686 2.43139 21.1805 3.18404 21.564C3.66938 21.8113 4.18608 21.9099 4.74818 21.9558C5.28937 22 5.95372 22 6.75868 22H17.2413C18.0463 22 18.7106 22 19.2518 21.9558C19.8139 21.9099 20.3306 21.8113 20.816 21.564C21.5686 21.1805 22.1805 20.5686 22.564 19.816C22.8113 19.3306 22.9099 18.8139 22.9558 18.2518C23 17.7106 23 17.0463 23 16.2413V11.7587C23 10.9537 23 10.2894 22.9558 9.74818C22.9099 9.18608 22.8113 8.66938 22.564 8.18404C22.1805 7.43139 21.5686 6.81947 20.816 6.43598C20.3306 6.18869 19.8139 6.09012 19.2518 6.0442C18.7106 5.99998 18.0463 5.99999 17.2413 6L13.618 6ZM12.9799 8C12.9938 8.00029 13.0077 8.00029 13.0217 8H17.2C18.0566 8 18.6389 8.00078 19.089 8.03755C19.5274 8.07337 19.7516 8.1383 19.908 8.21799C20.2843 8.40974 20.5903 8.7157 20.782 9.09202C20.8617 9.24842 20.9266 9.47262 20.9625 9.91104C20.9992 10.3611 21 10.9434 21 11.8V16.2C21 17.0566 20.9992 17.6389 20.9625 18.089C20.9266 18.5274 20.8617 18.7516 20.782 18.908C20.5903 19.2843 20.2843 19.5903 19.908 19.782C19.7516 19.8617 19.5274 19.9266 19.089 19.9625C18.6389 19.9992 18.0566 20 17.2 20H6.8C5.94342 20 5.36113 19.9992 4.91104 19.9625C4.47262 19.9266 4.24842 19.8617 4.09202 19.782C3.7157 19.5903 3.40974 19.2843 3.21799 18.908C3.1383 18.7516 3.07337 18.5274 3.03755 18.089C3.00078 17.6389 3 17.0566 3 16.2V8H12.9799ZM11.5 11C10.1193 11 9 12.1193 9 13.5C9 14.8807 10.1193 16 11.5 16C12.8807 16 14 14.8807 14 13.5C14 12.1193 12.8807 11 11.5 11ZM7 13.5C7 11.0147 9.01472 9 11.5 9C13.9853 9 16 11.0147 16 13.5C16 14.3805 15.7471 15.202 15.31 15.8957L16.2071 16.7929C16.5976 17.1834 16.5976 17.8166 16.2071 18.2071C15.8166 18.5976 15.1834 18.5976 14.7929 18.2071L13.8957 17.31C13.202 17.7471 12.3805 18 11.5 18C9.01472 18 7 15.9853 7 13.5Z" fill="#41403E"/>
</svg>
