<svg width="24" height="24" viewBox="0 0 24 24" fill="none" xmlns="http://www.w3.org/2000/svg">
<path fill-rule="evenodd" clip-rule="evenodd" d="M17.9707 4.18197C16.9944 3.20566 15.4115 3.20566 14.4352 4.18197L5.4196 13.1976C3.75987 14.8573 3.75987 17.5483 5.4196 19.208C7.07933 20.8677 9.77028 20.8677 11.43 19.208L20.4456 10.1924C20.8361 9.80185 21.4693 9.80185 21.8598 10.1924C22.2504 10.5829 22.2504 11.2161 21.8598 11.6066L12.8442 20.6222C10.4034 23.063 6.44616 23.063 4.00539 20.6222C1.56461 18.1814 1.56461 14.2241 4.00539 11.7834L13.021 2.76776C14.7784 1.0104 17.6276 1.0104 19.385 2.76776C21.1423 4.52512 21.1423 7.37436 19.385 9.13172L10.7229 17.7938C9.64896 18.8677 7.90776 18.8677 6.83381 17.7938C5.75987 16.7198 5.75987 14.9786 6.83381 13.9047L14.4352 6.30329C14.8257 5.91277 15.4589 5.91277 15.8494 6.30329C16.24 6.69382 16.24 7.32698 15.8494 7.7175L8.24803 15.3189C7.95513 15.6118 7.95513 16.0867 8.24803 16.3796C8.54092 16.6725 9.0158 16.6725 9.30869 16.3796L17.9707 7.7175C18.9471 6.74119 18.9471 5.15828 17.9707 4.18197Z" fill="#41403E"/>
</svg>
