<svg width="24" height="24" viewBox="0 0 24 24" fill="none" xmlns="http://www.w3.org/2000/svg">
<path fill-rule="evenodd" clip-rule="evenodd" d="M12 3C7.02944 3 3 7.02944 3 12C3 16.9706 7.02944 21 12 21C16.9706 21 21 16.9706 21 12C21 7.02944 16.9706 3 12 3ZM1 12C1 5.92487 5.92487 1 12 1C18.0751 1 23 5.92487 23 12C23 18.0751 18.0751 23 12 23C5.92487 23 1 18.0751 1 12Z" fill="#41403E"/>
<path fill-rule="evenodd" clip-rule="evenodd" d="M12.954 12.2642C12.9607 12.2664 12.9672 12.2686 12.9737 12.2707C12.9937 12.2774 13.0136 12.2847 13.0331 12.2927C13.2292 12.3722 13.514 12.4602 13.8925 12.5721C13.9425 12.5869 13.9939 12.6021 14.0464 12.6175C14.371 12.7131 14.738 12.8211 15.0966 12.941C15.5123 13.0799 15.9535 13.2465 16.3482 13.4514C16.7284 13.6487 17.1547 13.9262 17.4532 14.3273C17.6647 14.6117 17.7688 14.9617 17.7469 15.3155C17.7233 15.6974 17.5792 16.0676 17.4398 16.3566C17.2913 16.6645 17.1011 16.9743 16.9054 17.257C16.5257 17.8057 16.0519 18.3565 15.6841 18.6588C15.5317 18.7841 15.3562 18.878 15.1675 18.9353C14.6921 19.0797 14.0832 19.1488 13.5202 19.1521C12.9713 19.1554 12.3237 19.0977 11.8106 18.8959C11.5769 18.804 11.37 18.6549 11.2089 18.4623C10.8277 18.0064 10.563 17.3553 10.3904 16.8086C10.2102 16.2375 10.0846 15.6304 10.0446 15.1674C10.0311 15.0106 10.0423 14.8526 10.0779 14.6993C10.1566 14.3602 10.2996 13.9479 10.4853 13.5654C10.6591 13.2073 10.9284 12.7522 11.3111 12.4437C11.5351 12.2631 11.8063 12.1508 12.0924 12.12C12.31 12.0967 12.4945 12.1308 12.6243 12.1633C12.7344 12.1909 12.8552 12.2312 12.954 12.2642ZM12.4158 14.1982C12.3729 14.2672 12.3285 14.3481 12.2846 14.4387C12.1774 14.6594 12.0939 14.8939 12.0453 15.0751C12.0784 15.3657 12.1652 15.7867 12.2977 16.2065C12.421 16.5974 12.5559 16.8958 12.6675 17.0732C12.8545 17.1194 13.1478 17.1543 13.5082 17.1522C13.8927 17.1499 14.2486 17.1062 14.4881 17.0482C14.6742 16.8734 14.9785 16.5268 15.2609 16.1188C15.417 15.8932 15.548 15.6751 15.6385 15.4876C15.6577 15.4478 15.6736 15.4122 15.6869 15.3808C15.6231 15.3363 15.5381 15.2843 15.4268 15.2265C15.1665 15.0914 14.8377 14.9632 14.4626 14.8378C14.1413 14.7304 13.8129 14.6337 13.4864 14.5375C13.4327 14.5217 13.3791 14.5059 13.3255 14.4901C13.0167 14.3988 12.6927 14.3014 12.4158 14.1982Z" fill="#41403E"/>
<path fill-rule="evenodd" clip-rule="evenodd" d="M14.3822 1.27163C14.9332 1.30837 15.3502 1.78487 15.3134 2.33594C15.2879 2.71891 15.2943 3.12432 15.3016 3.58806C15.3064 3.89856 15.3117 4.23523 15.3081 4.60882C15.3001 5.43882 15.2441 6.42586 14.9075 7.23923C14.8241 7.44072 14.6978 7.6216 14.5373 7.76928C13.7928 8.45461 12.8093 8.72555 12.0844 8.92525C12.0388 8.9378 11.9943 8.95008 11.9509 8.96216C11.1145 9.19484 10.5617 9.38005 10.1719 9.76144C10.0817 9.84978 10.0039 9.97725 9.85548 10.2208C9.80846 10.2979 9.75434 10.3867 9.69048 10.4896C9.49635 10.8022 9.14348 11.3616 8.56341 11.6512L8.11675 10.7565L8.56341 11.6512C8.28426 11.7906 7.96861 11.8394 7.6604 11.7909C7.10177 11.7031 6.56563 11.4457 6.09935 11.1627C5.62256 10.8733 5.14962 10.5139 4.71131 10.1556C4.35466 9.86398 4.0023 9.55746 3.68068 9.27769C3.60751 9.21404 3.53593 9.15177 3.46625 9.09138C3.07703 8.75402 2.75559 8.48269 2.49502 8.29657C2.0456 7.97556 1.94151 7.35102 2.26251 6.9016C2.58352 6.45219 3.20807 6.34809 3.65748 6.66909C4.00592 6.91797 4.39525 7.24989 4.77618 7.58006C4.85146 7.64531 4.92689 7.71091 5.0025 7.77668C5.32285 8.0553 5.6466 8.33689 5.97722 8.60719C6.38538 8.94089 6.77585 9.23377 7.13702 9.45296C7.39041 9.60675 7.59951 9.70563 7.76587 9.76225C7.82989 9.68448 7.90137 9.57953 7.99132 9.43464C8.01796 9.39174 8.05087 9.33743 8.08689 9.27801C8.15673 9.1628 8.23824 9.02832 8.30831 8.92031C8.42436 8.74141 8.57779 8.52313 8.77309 8.33201L8.77309 8.33201C9.57533 7.54694 10.6222 7.25579 11.3876 7.04289L11.4148 7.03535C12.2209 6.81106 12.7365 6.65858 13.0992 6.36944C13.2448 5.94808 13.3009 5.34554 13.3082 4.58955C13.3107 4.33507 13.3068 4.04887 13.3028 3.75453C13.2956 3.21649 13.288 2.65126 13.3179 2.2029C13.3546 1.65184 13.8311 1.23489 14.3822 1.27163Z" fill="#41403E"/>
</svg>
