<svg width="512" height="512" fill="none" xmlns="http://www.w3.org/2000/svg"><path fill-rule="evenodd" clip-rule="evenodd" d="M76.945 234.043l3.275 3.286c-5.403 4.352-8.906 11.322-8.906 19.171s3.503 14.818 8.906 19.171l-3.275 3.286c-6.233-5.22-10.242-13.341-10.242-22.457 0-9.116 4.009-17.237 10.242-22.457z" fill="#1D9CD4"/><path fill-rule="evenodd" clip-rule="evenodd" d="M83.282 282.894A15.226 15.226 0 0175.533 285H52.132v-20.034c0-3.396-2.747-6.153-6.132-6.153v-4.626c3.385 0 6.132-2.758 6.132-6.154V228h23.451c2.806.008 5.437.775 7.699 2.105A25.032 25.032 0 0193.342 228c9.132 0 17.199 4.927 21.999 12.431l-3.351 3.364c-3.902-6.708-10.798-11.168-18.648-11.168-2.09 0-4.11.315-6.026.905a15.372 15.372 0 013.572 9.874 15.413 15.413 0 01-7.263 13.094 15.413 15.413 0 017.263 13.094c0 3.755-1.341 7.199-3.572 9.874 1.916.59 3.938.905 6.026.905 9.004 0 16.755-5.869 20.169-14.269l3.489 3.5C112.562 278.748 103.628 285 93.342 285c-3.56 0-6.957-.748-10.06-2.106zm-26.539-2.521v-15.407c0-3.432-1.601-6.491-4.095-8.466a10.775 10.775 0 004.095-8.467v-15.406h18.79c5.93 0 10.744 4.83 10.744 10.779 0 5.95-4.814 10.781-10.744 10.781v4.626c5.93 0 10.744 4.83 10.744 10.781 0 5.937-4.794 10.759-10.709 10.779H56.743z" fill="#12398C"/><path d="M165.12 263.691c0-3.754-1.874-6.384-5.624-7.892 3.154-1.609 4.731-4.105 4.731-7.49 0-2.982-1.245-5.512-3.732-7.59-2.383-1.876-5.151-2.814-8.306-2.814H136v36.24h17.083c3.119 0 5.905-.971 8.358-2.914 1.261-1.006 2.19-2.129 2.786-3.368.595-1.241.893-2.631.893-4.172zm-5.676 0c0 1.541-.666 2.748-1.998 3.618-1.227.905-2.681 1.357-4.363 1.357h-11.407v-9.952h11.407c1.682 0 3.136.453 4.363 1.358 1.332.938 1.998 2.144 1.998 3.619zm-.946-15.382c0 1.475-.649 2.681-1.945 3.619-1.263.905-2.717 1.358-4.364 1.358h-10.513v-9.953h10.513c1.647 0 3.101.452 4.364 1.357 1.296.938 1.945 2.145 1.945 3.619zM200.865 274.145v-27.444h-5.73v3.719c-2.804-3.082-6.29-4.624-10.461-4.624-2.032 0-3.916.36-5.65 1.08-1.735.722-3.268 1.835-4.6 3.344-2.733 2.814-4.1 6.216-4.1 10.203 0 3.955 1.35 7.338 4.048 10.154 2.734 2.949 6.168 4.423 10.302 4.423 4.241 0 7.728-1.542 10.461-4.624v3.769h5.73zm-5.73-13.722c0 2.547-.929 4.709-2.786 6.485-1.857 1.775-4.118 2.663-6.781 2.663-2.663 0-4.924-.888-6.78-2.663-1.858-1.776-2.786-3.938-2.786-6.485s.928-4.708 2.786-6.484c1.856-1.776 4.117-2.664 6.78-2.664 2.663 0 4.924.888 6.781 2.664 1.857 1.776 2.786 3.937 2.786 6.484zM232.719 274.145V257.76c0-3.218-1.086-5.966-3.259-8.245-2.207-2.479-4.993-3.719-8.358-3.719-3.049 0-5.624 1.022-7.727 3.067v-2.162h-5.676v27.444h5.676V257.76c0-1.81.666-3.352 1.998-4.626 1.296-1.239 2.908-1.859 4.836-1.859 1.857 0 3.469.62 4.835 1.859 1.298 1.308 1.945 2.849 1.945 4.626v16.385h5.73zM263.628 274.145v-27.444h-5.73v16.336c0 1.775-.649 3.317-1.945 4.624a7.623 7.623 0 01-2.208 1.408 6.78 6.78 0 01-2.629.502 6.783 6.783 0 01-2.628-.502 7.632 7.632 0 01-2.207-1.408 7.278 7.278 0 01-1.472-2.11 6.013 6.013 0 01-.525-2.514v-16.336h-5.678v16.336c0 3.184 1.07 5.948 3.206 8.294 2.244 2.446 5.03 3.669 8.358 3.669 2.98 0 5.556-1.005 7.728-3.016v2.161h5.73zM299.844 274.145v-27.444h-5.729v3.719c-2.803-3.082-6.29-4.624-10.46-4.624-2.033 0-3.916.36-5.65 1.08-1.736.722-3.269 1.835-4.6 3.344-2.734 2.814-4.1 6.216-4.1 10.203 0 3.955 1.348 7.338 4.048 10.154 2.732 2.949 6.166 4.423 10.302 4.423 4.239 0 7.727-1.542 10.46-4.624v3.769h5.729zm-5.729-13.722c0 2.547-.928 4.709-2.786 6.485-1.857 1.775-4.117 2.663-6.781 2.663-2.663 0-4.923-.888-6.781-2.663-1.857-1.776-2.786-3.938-2.786-6.485s.929-4.708 2.786-6.484c1.858-1.776 4.118-2.664 6.781-2.664 2.664 0 4.924.888 6.781 2.664 1.858 1.776 2.786 3.937 2.786 6.484z" fill="#12398C"/><path d="M339.426 268.666l-3.679-3.367c-3.049 2.848-6.5 4.272-10.356 4.272-3.855 0-7.201-1.323-10.04-3.97-2.768-2.715-4.152-5.915-4.152-9.601 0-3.686 1.384-6.886 4.152-9.601 2.769-2.614 6.116-3.92 10.04-3.92 3.891 0 7.342 1.407 10.356 4.222l4.1-3.72c-4.171-3.988-8.989-5.981-14.456-5.981-5.431 0-10.11 1.876-14.034 5.629-3.891 3.72-5.835 8.177-5.835 13.371 0 5.194 1.927 9.684 5.781 13.471 3.926 3.686 8.622 5.529 14.088 5.529 5.397 0 10.076-1.86 14.035-5.579v-.755zM375.328 260.423c0-3.987-1.507-7.422-4.52-10.304-3.014-2.881-6.606-4.323-10.777-4.323-4.169 0-7.744 1.442-10.722 4.323-3.014 2.882-4.521 6.317-4.521 10.304 0 3.988 1.507 7.406 4.521 10.254 2.978 2.882 6.553 4.323 10.722 4.323 4.171 0 7.763-1.441 10.777-4.323 3.013-2.848 4.52-6.266 4.52-10.254zm-5.73 0c0 2.547-.927 4.709-2.785 6.485-1.858 1.775-4.117 2.663-6.782 2.663-2.663 0-4.923-.888-6.78-2.663-1.858-1.776-2.786-3.938-2.786-6.485s.928-4.708 2.786-6.484c1.857-1.776 4.117-2.664 6.78-2.664 2.665 0 4.924.888 6.782 2.664 1.858 1.776 2.785 3.937 2.785 6.484zM410.389 274.145v-36.24h-5.73v12.515c-2.802-3.082-6.29-4.624-10.46-4.624-2.032 0-3.915.36-5.651 1.08-1.734.722-3.268 1.835-4.599 3.344-2.734 2.814-4.101 6.216-4.101 10.203 0 3.955 1.35 7.338 4.048 10.154 2.734 2.949 6.168 4.423 10.303 4.423 4.24 0 7.727-1.542 10.46-4.624v3.769h5.73zm-5.73-13.722c0 2.547-.929 4.709-2.785 6.485-1.857 1.775-4.118 2.663-6.782 2.663-2.663 0-4.922-.888-6.78-2.663-1.858-1.776-2.786-3.938-2.786-6.485s.928-4.708 2.786-6.484c1.858-1.776 4.117-2.664 6.78-2.664 2.664 0 4.925.888 6.782 2.664 1.856 1.776 2.785 3.937 2.785 6.484zM446.607 260.423c0-3.987-1.507-7.422-4.521-10.304-3.014-2.881-6.606-4.323-10.776-4.323s-7.745 1.442-10.723 4.323c-3.014 2.882-4.521 6.317-4.521 10.304 0 3.988 1.507 7.406 4.521 10.254 2.978 2.882 6.553 4.323 10.723 4.323 2.383 0 4.67-.545 6.86-1.634a16.344 16.344 0 005.598-4.549l-4.783-2.965c-2.103 2.48-4.662 3.719-7.675 3.719-2.172 0-4.153-.67-5.94-2.011-1.542-1.172-2.593-2.646-3.153-4.423h24.127l.184-1.507c.052-.436.079-.838.079-1.207zm-21.237-7.187c1.787-1.308 3.768-1.961 5.94-1.961 2.278 0 4.258.653 5.94 1.961 1.507 1.106 2.575 2.579 3.206 4.422h-18.239c.56-1.741 1.611-3.216 3.153-4.422zM468 251.225v-5.228a27.938 27.938 0 00-1.314-.151c-.385-.034-.718-.05-.998-.05-3.049 0-5.625 1.022-7.728 3.067v-2.162h-5.676v27.444h5.676V257.76c0-1.81.666-3.352 1.998-4.626 1.296-1.239 2.909-1.859 4.836-1.859.806 0 1.63.134 2.47.402l.736-.452z" fill="#1D9CD4"/></svg>