<svg width="512" height="512" fill="none" xmlns="http://www.w3.org/2000/svg"><path fill-rule="evenodd" clip-rule="evenodd" d="M76.965 234.027l3.277 3.277c-5.407 4.34-8.912 11.292-8.912 19.119 0 7.828 3.505 14.778 8.912 19.12l-3.277 3.276c-6.237-5.205-10.249-13.305-10.249-22.396 0-9.091 4.012-17.19 10.25-22.396z" fill="#1D9CD4"/><path fill-rule="evenodd" clip-rule="evenodd" d="M83.306 282.746a15.27 15.27 0 01-7.753 2.101H52.136v-19.981A6.14 6.14 0 0046 258.73v-4.614a6.14 6.14 0 006.136-6.137V228H75.603a15.28 15.28 0 017.703 2.099A25.126 25.126 0 0193.373 228c9.138 0 17.21 4.914 22.013 12.398l-3.354 3.354c-3.903-6.69-10.804-11.138-18.66-11.138-2.09 0-4.112.315-6.029.903a15.299 15.299 0 013.574 9.848c0 5.51-2.905 10.346-7.267 13.058 4.362 2.712 7.267 7.549 7.267 13.059 0 3.745-1.342 7.179-3.574 9.848 1.917.587 3.94.902 6.03.902 9.01 0 16.765-5.853 20.182-14.231l3.491 3.491c-4.441 9.119-13.38 15.355-23.674 15.355a25.11 25.11 0 01-10.066-2.101zm-26.556-2.514v-15.366c0-3.422-1.602-6.473-4.098-8.443a10.732 10.732 0 004.098-8.444v-15.365h18.803c5.933 0 10.75 4.817 10.75 10.751 0 5.933-4.817 10.751-10.75 10.751v4.614c5.933 0 10.75 4.817 10.75 10.752 0 5.921-4.797 10.73-10.716 10.75H56.75z" fill="#fff"/><path d="M164.518 264.429c0-3.907-1.865-6.645-5.598-8.215 3.139-1.674 4.709-4.273 4.709-7.796 0-3.105-1.239-5.738-3.715-7.901-2.372-1.953-5.127-2.93-8.267-2.93h-16.115v37.724h17.005c3.104 0 5.877-1.011 8.319-3.034 1.255-1.047 2.18-2.215 2.773-3.506s.889-2.738.889-4.342zm-5.65 0c0 1.604-.663 2.86-1.989 3.766-1.221.942-2.668 1.413-4.342 1.413h-11.355v-10.359h11.355c1.674 0 3.121.471 4.342 1.413 1.326.976 1.989 2.232 1.989 3.767zm-.942-16.011c0 1.535-.645 2.79-1.936 3.767-1.256.942-2.704 1.413-4.343 1.413h-10.465v-10.361h10.465c1.639 0 3.087.471 4.343 1.413 1.291.977 1.936 2.233 1.936 3.768zM200.098 275.311v-28.568h-5.703v3.872c-2.791-3.209-6.261-4.814-10.413-4.814-2.022 0-3.898.375-5.624 1.125-1.727.751-3.253 1.91-4.579 3.481-2.72 2.929-4.081 6.47-4.081 10.62 0 4.117 1.344 7.639 4.029 10.57 2.721 3.07 6.139 4.604 10.255 4.604 4.221 0 7.692-1.605 10.413-4.813v3.923h5.703zm-5.703-14.284c0 2.651-.925 4.902-2.774 6.75-1.848 1.848-4.098 2.773-6.749 2.773s-4.901-.925-6.749-2.773c-1.849-1.848-2.774-4.099-2.774-6.75s.925-4.9 2.774-6.749c1.848-1.849 4.098-2.773 6.749-2.773s4.901.924 6.749 2.773c1.849 1.849 2.774 4.098 2.774 6.749zM231.805 275.311v-17.056c0-3.35-1.081-6.21-3.244-8.582-2.197-2.58-4.97-3.872-8.319-3.872-3.035 0-5.599 1.065-7.692 3.193v-2.251h-5.65v28.568h5.65v-17.056c0-1.884.663-3.489 1.989-4.815 1.29-1.29 2.895-1.935 4.813-1.935 1.849 0 3.454.645 4.814 1.935 1.291 1.361 1.935 2.966 1.935 4.815v17.056h5.704zM262.571 275.311v-28.568h-5.703v17.006c0 1.847-.646 3.452-1.936 4.813a7.545 7.545 0 01-2.198 1.465 6.488 6.488 0 01-2.616.523 6.493 6.493 0 01-2.617-.523 7.567 7.567 0 01-2.197-1.465 7.614 7.614 0 01-1.465-2.197 6.508 6.508 0 01-.523-2.616v-17.006h-5.651v17.006c0 3.313 1.065 6.191 3.191 8.632 2.234 2.547 5.007 3.82 8.32 3.82 2.965 0 5.529-1.046 7.692-3.139v2.249h5.703zM298.62 275.311v-28.568h-5.703v3.872c-2.789-3.209-6.261-4.814-10.411-4.814-2.024 0-3.898.375-5.624 1.125-1.728.751-3.254 1.91-4.579 3.481-2.721 2.929-4.081 6.47-4.081 10.62 0 4.117 1.342 7.639 4.029 10.57 2.72 3.07 6.138 4.604 10.255 4.604 4.22 0 7.691-1.605 10.411-4.813v3.923h5.703zm-5.703-14.284c0 2.651-.923 4.902-2.772 6.75-1.849 1.848-4.098 2.773-6.75 2.773-2.651 0-4.901-.925-6.75-2.773-1.848-1.848-2.773-4.099-2.773-6.75s.925-4.9 2.773-6.749c1.849-1.849 4.099-2.773 6.75-2.773 2.652 0 4.901.924 6.75 2.773 1.849 1.849 2.772 4.098 2.772 6.749z" fill="#fff"/><path d="M338.02 269.608l-3.663-3.505c-3.035 2.965-6.47 4.447-10.308 4.447-3.837 0-7.168-1.377-9.993-4.133-2.755-2.826-4.133-6.157-4.133-9.994 0-3.837 1.378-7.168 4.133-9.993 2.756-2.722 6.087-4.081 9.993-4.081 3.873 0 7.308 1.465 10.308 4.394l4.081-3.871c-4.151-4.152-8.947-6.226-14.389-6.226-5.406 0-10.063 1.953-13.969 5.859-3.873 3.873-5.809 8.511-5.809 13.918s1.919 10.081 5.756 14.023c3.907 3.837 8.582 5.755 14.022 5.755 5.372 0 10.03-1.936 13.971-5.807v-.786zM373.756 261.027c0-4.15-1.5-7.726-4.499-10.726-3-2.999-6.576-4.5-10.727-4.5-4.151 0-7.709 1.501-10.673 4.5-3 3-4.5 6.576-4.5 10.726 0 4.152 1.5 7.71 4.5 10.674 2.964 3 6.522 4.5 10.673 4.5s7.727-1.5 10.727-4.5c2.999-2.964 4.499-6.522 4.499-10.674zm-5.704 0c0 2.651-.923 4.902-2.772 6.75-1.849 1.848-4.098 2.773-6.75 2.773-2.651 0-4.9-.925-6.749-2.773-1.849-1.848-2.774-4.099-2.774-6.75s.925-4.9 2.774-6.749c1.849-1.849 4.098-2.773 6.749-2.773 2.652 0 4.901.924 6.75 2.773 1.849 1.849 2.772 4.098 2.772 6.749zM408.655 275.311v-37.724h-5.703v13.028c-2.79-3.209-6.261-4.814-10.413-4.814-2.022 0-3.897.375-5.624 1.125-1.727.751-3.253 1.91-4.578 3.481-2.721 2.929-4.082 6.47-4.082 10.62 0 4.117 1.344 7.639 4.029 10.57 2.722 3.07 6.14 4.604 10.255 4.604 4.221 0 7.692-1.605 10.413-4.813v3.923h5.703zm-5.703-14.284c0 2.651-.925 4.902-2.773 6.75-1.849 1.848-4.099 2.773-6.75 2.773s-4.9-.925-6.749-2.773c-1.849-1.848-2.774-4.099-2.774-6.75s.925-4.9 2.774-6.749c1.849-1.849 4.098-2.773 6.749-2.773s4.901.924 6.75 2.773c1.848 1.849 2.773 4.098 2.773 6.749zM444.705 261.027c0-4.15-1.499-7.726-4.499-10.726-3.001-2.999-6.576-4.5-10.726-4.5-4.152 0-7.71 1.501-10.674 4.5-3.001 3-4.5 6.576-4.5 10.726 0 4.152 1.499 7.71 4.5 10.674 2.964 3 6.522 4.5 10.674 4.5 2.372 0 4.647-.567 6.827-1.701 2.18-1.133 4.039-2.711 5.573-4.735l-4.761-3.087c-2.094 2.582-4.64 3.872-7.639 3.872-2.163 0-4.135-.698-5.913-2.093-1.535-1.221-2.581-2.755-3.139-4.604h24.016l.183-1.569c.052-.454.078-.873.078-1.257zm-21.138-7.481c1.778-1.361 3.75-2.041 5.913-2.041 2.266 0 4.238.68 5.912 2.041 1.5 1.151 2.563 2.685 3.191 4.604h-18.155c.558-1.814 1.604-3.349 3.139-4.604zM466 251.453v-5.442a26.94 26.94 0 00-1.308-.158 11.53 11.53 0 00-.993-.052c-3.035 0-5.599 1.065-7.693 3.193v-2.251h-5.65v28.568h5.65v-17.056c0-1.884.663-3.489 1.989-4.815 1.29-1.29 2.895-1.935 4.814-1.935.802 0 1.622.14 2.459.418l.732-.47z" fill="#1D9CD4"/></svg>