<svg width="24" height="24" viewBox="0 0 24 24" fill="none" xmlns="http://www.w3.org/2000/svg">
<path fill-rule="evenodd" clip-rule="evenodd" d="M11.8253 2.03204C11.9415 2.02185 12.0585 2.02185 12.1747 2.03204C12.3084 2.04377 12.436 2.07231 12.5372 2.09496C12.5464 2.09701 12.5553 2.09901 12.564 2.10095L19.9907 3.75132C20.1911 3.79583 20.3903 3.84007 20.5587 3.8907C20.7467 3.9472 20.9607 4.02929 21.1691 4.17944C21.4634 4.3915 21.6946 4.67963 21.8377 5.01297C21.9391 5.24898 21.9728 5.47564 21.9872 5.6714C22.0001 5.8468 22 6.05088 22 6.25618V7.43192C22 7.6843 22.0001 7.93008 21.9831 8.13823C21.9644 8.36683 21.9203 8.63656 21.782 8.90799C21.5903 9.28431 21.2843 9.59027 20.908 9.78202C20.6366 9.92031 20.3668 9.96438 20.1382 9.98306C20.0938 9.98669 20.0476 9.98955 20 9.99179V16.0082C20.0476 16.0105 20.0938 16.0133 20.1382 16.0169C20.3668 16.0356 20.6366 16.0797 20.908 16.218C21.2843 16.4097 21.5903 16.7157 21.782 17.092C21.9203 17.3634 21.9644 17.6332 21.9831 17.8618C22.0001 18.0699 22 18.3157 22 18.5681V19.4319C22 19.6843 22.0001 19.9301 21.9831 20.1382C21.9644 20.3668 21.9203 20.6366 21.782 20.908C21.5903 21.2843 21.2843 21.5903 20.908 21.782C20.6366 21.9203 20.3668 21.9644 20.1382 21.9831C19.9301 22.0001 19.6843 22 19.4319 22H4.56809C4.31571 22 4.06993 22.0001 3.86178 21.9831C3.63318 21.9644 3.36345 21.9203 3.09202 21.782C2.7157 21.5903 2.40974 21.2843 2.21799 20.908C2.07969 20.6366 2.03563 20.3668 2.01695 20.1382C1.99994 19.9301 1.99997 19.6843 2 19.4319L2 18.5681C1.99997 18.3157 1.99994 18.0699 2.01695 17.8618C2.03563 17.6332 2.07969 17.3634 2.21799 17.092C2.40974 16.7157 2.7157 16.4097 3.09202 16.218C3.36345 16.0797 3.63318 16.0356 3.86178 16.0169C3.90624 16.0133 3.95241 16.0105 4.00001 16.0082V9.99179C3.95241 9.98955 3.90624 9.98669 3.86178 9.98306C3.63318 9.96438 3.36345 9.92031 3.09202 9.78202C2.7157 9.59027 2.40974 9.28431 2.21799 8.90799C2.07969 8.63656 2.03563 8.36683 2.01695 8.13823C1.99994 7.93008 1.99997 7.68428 2 7.4319C2 7.42128 2.00001 7.41065 2.00001 7.4L2.00001 6.28348C2.00001 6.27438 2 6.26528 2 6.25618C1.99998 6.05089 1.99995 5.8468 2.01284 5.6714C2.02721 5.47564 2.06094 5.24899 2.1623 5.01297C2.30546 4.67962 2.53659 4.3915 2.83093 4.17944C3.03935 4.02929 3.25328 3.9472 3.44126 3.8907C3.6097 3.84007 3.80892 3.79582 4.00934 3.75131C4.01822 3.74934 4.0271 3.74737 4.03599 3.74539L11.436 2.10095C11.4447 2.09901 11.4537 2.09701 11.4628 2.09496C11.564 2.07231 11.6916 2.04377 11.8253 2.03204ZM6.00001 10V16H8.50001V10H6.00001ZM4.6 8C4.30348 8 4.14122 7.99923 4.02464 7.9897C4.02 7.98932 4.0156 7.98894 4.01145 7.98856C4.01107 7.98441 4.01069 7.98001 4.01031 7.97537C4.00078 7.85879 4.00001 7.69653 4.00001 7.4V6.28348C4.00001 6.03996 4.00063 5.91094 4.00746 5.8179C4.0077 5.81468 4.00794 5.81163 4.00817 5.80873C4.01095 5.80787 4.01388 5.80697 4.01697 5.80605C4.10631 5.77919 4.23213 5.75059 4.46985 5.69777L11.8698 4.05332C11.9394 4.03787 11.9734 4.03039 11.9983 4.02553C11.9989 4.02542 11.9995 4.02531 12 4.0252C12.0006 4.02531 12.0011 4.02542 12.0017 4.02553C12.0266 4.03039 12.0606 4.03787 12.1302 4.05332L19.5302 5.69777C19.7679 5.75059 19.8937 5.77919 19.983 5.80605C19.9861 5.80697 19.9891 5.80787 19.9918 5.80873C19.9921 5.81163 19.9923 5.81469 19.9925 5.8179C19.9994 5.91094 20 6.03996 20 6.28348V7.4C20 7.69653 19.9992 7.85879 19.9897 7.97537C19.9893 7.98001 19.9889 7.9844 19.9886 7.98855C19.9844 7.98893 19.98 7.98932 19.9754 7.9897C19.8588 7.99923 19.6965 8 19.4 8H4.6ZM10.5 10V16H13.5V10H10.5ZM15.5 10V16H18V10H15.5ZM4.60001 18C4.30348 18 4.14122 18.0008 4.02464 18.0103C4.02 18.0107 4.0156 18.0111 4.01145 18.0115C4.01107 18.0156 4.01069 18.02 4.01031 18.0246C4.00078 18.1412 4.00001 18.3035 4.00001 18.6V19.4C4.00001 19.6965 4.00078 19.8588 4.01031 19.9754C4.01069 19.98 4.01107 19.9844 4.01145 19.9885C4.0156 19.9889 4.02 19.9893 4.02464 19.9897C4.14122 19.9992 4.30348 20 4.6 20H19.4C19.6965 20 19.8588 19.9992 19.9754 19.9897C19.98 19.9893 19.9844 19.9889 19.9886 19.9886C19.9889 19.9844 19.9893 19.98 19.9897 19.9754C19.9992 19.8588 20 19.6965 20 19.4V18.6C20 18.3035 19.9992 18.1412 19.9897 18.0246C19.9893 18.02 19.9889 18.0156 19.9885 18.0115C19.9844 18.0111 19.98 18.0107 19.9754 18.0103C19.8588 18.0008 19.6965 18 19.4 18H4.60001Z" fill="#41403E"/>
</svg>
