<svg width="24" height="24" viewBox="0 0 24 24" fill="none" xmlns="http://www.w3.org/2000/svg">
<path fill-rule="evenodd" clip-rule="evenodd" d="M17.5 1C18.0523 1 18.5 1.44772 18.5 2V4C19.4565 4 20.2685 4.29489 20.8199 4.93456C21.3475 5.54657 21.5 6.31863 21.5 7V17C21.5 17.6814 21.3475 18.4534 20.8199 19.0654C20.2685 19.7051 19.4565 20 18.5 20V22C18.5 22.5523 18.0523 23 17.5 23C16.9477 23 16.5 22.5523 16.5 22V20C15.5435 20 14.7315 19.7051 14.1801 19.0654C13.6525 18.4534 13.5 17.6814 13.5 17V7C13.5 6.31863 13.6525 5.54657 14.1801 4.93456C14.7315 4.29489 15.5435 4 16.5 4V2C16.5 1.44772 16.9477 1 17.5 1ZM16.5 6C15.9565 6 15.7685 6.15511 15.6949 6.24044C15.5975 6.35343 15.5 6.58137 15.5 7V17C15.5 17.4186 15.5975 17.6466 15.6949 17.7596C15.7685 17.8449 15.9565 18 16.5 18H18.5C19.0435 18 19.2315 17.8449 19.3051 17.7596C19.4025 17.6466 19.5 17.4186 19.5 17V7C19.5 6.58137 19.4025 6.35343 19.3051 6.24044C19.2315 6.15511 19.0435 6 18.5 6H16.5ZM6.5 4C7.05228 4 7.5 4.44772 7.5 5V7C8.45646 7 9.26847 7.29489 9.81991 7.93456C10.3475 8.54657 10.5 9.31863 10.5 10V16.5C10.5 17.1814 10.3475 17.9534 9.81991 18.5654C9.26847 19.2051 8.45646 19.5 7.5 19.5V22C7.5 22.5523 7.05228 23 6.5 23C5.94772 23 5.5 22.5523 5.5 22V19.5C4.54354 19.5 3.73153 19.2051 3.18009 18.5654C2.6525 17.9534 2.5 17.1814 2.5 16.5V10C2.5 9.31863 2.6525 8.54657 3.18009 7.93456C3.73153 7.29489 4.54354 7 5.5 7V5C5.5 4.44772 5.94772 4 6.5 4ZM5.5 9C4.95646 9 4.76847 9.15511 4.69491 9.24044C4.5975 9.35343 4.5 9.58137 4.5 10V16.5C4.5 16.9186 4.5975 17.1466 4.69491 17.2596C4.76847 17.3449 4.95646 17.5 5.5 17.5H7.5C8.04354 17.5 8.23153 17.3449 8.30509 17.2596C8.4025 17.1466 8.5 16.9186 8.5 16.5V10C8.5 9.58137 8.4025 9.35343 8.30509 9.24044C8.23153 9.15511 8.04354 9 7.5 9H5.5Z" fill="#41403E"/>
</svg>
