<svg width="24" height="24" viewBox="0 0 24 24" fill="none" xmlns="http://www.w3.org/2000/svg">
<path fill-rule="evenodd" clip-rule="evenodd" d="M9.40112 3.28576C10.843 1.87283 12.8206 1 15 1C19.4183 1 23 4.58172 23 9C23 11.1795 22.1271 13.1571 20.7142 14.599C20.3276 14.9934 19.6945 14.9998 19.3 14.6133C18.9056 14.2267 18.8992 13.5936 19.2857 13.1991C20.3472 12.1159 21 10.6352 21 9C21 5.68629 18.3137 3 15 3C13.3648 3 11.8841 3.65279 10.8009 4.71424C10.4065 5.10079 9.77332 5.09436 9.38678 4.6999C9.00023 4.30544 9.00665 3.6723 9.40112 3.28576ZM9 9C5.68629 9 3 11.6863 3 15C3 18.3137 5.68629 21 9 21C12.3137 21 15 18.3137 15 15C15 11.6863 12.3137 9 9 9ZM1 15C1 10.5817 4.58172 7 9 7C13.4183 7 17 10.5817 17 15C17 19.4183 13.4183 23 9 23C4.58172 23 1 19.4183 1 15Z" fill="#41403E"/>
<path fill-rule="evenodd" clip-rule="evenodd" d="M9 11C9.55228 11 10 11.4477 10 12V14H12C12.5523 14 13 14.4477 13 15C13 15.5523 12.5523 16 12 16H10V18C10 18.5523 9.55228 19 9 19C8.44772 19 8 18.5523 8 18V16H6C5.44772 16 5 15.5523 5 15C5 14.4477 5.44772 14 6 14H8V12C8 11.4477 8.44772 11 9 11Z" fill="#41403E"/>
</svg>
