<svg width="24" height="24" viewBox="0 0 24 24" fill="none" xmlns="http://www.w3.org/2000/svg">
<path fill-rule="evenodd" clip-rule="evenodd" d="M12 3C7.02944 3 3 7.02944 3 12C3 16.9706 7.02944 21 12 21C16.9706 21 21 16.9706 21 12C21 7.02944 16.9706 3 12 3ZM1 12C1 5.92487 5.92487 1 12 1C18.0751 1 23 5.92487 23 12C23 18.0751 18.0751 23 12 23C5.92487 23 1 18.0751 1 12Z" fill="#41403E"/>
<path fill-rule="evenodd" clip-rule="evenodd" d="M7.05078 7.22498C7.05078 6.67269 7.4985 6.22498 8.05078 6.22498H9.87063C11.5827 6.22498 12.9706 7.61289 12.9706 9.32498V9.46506C12.9706 10.5514 12.3854 11.501 11.5131 12.0159L12.8344 14.2811C13.1127 14.7582 12.9515 15.3705 12.4745 15.6488C11.9974 15.927 11.3851 15.7659 11.1068 15.2888L9.43633 12.425H9.05078V14.785C9.05078 15.3373 8.60307 15.785 8.05078 15.785C7.4985 15.785 7.05078 15.3373 7.05078 14.785V7.22498ZM9.05078 10.425H10.0107C10.5409 10.425 10.9706 9.99521 10.9706 9.46506V9.32498C10.9706 8.71746 10.4781 8.22498 9.87063 8.22498H9.05078V10.425Z" fill="#41403E"/>
<path fill-rule="evenodd" clip-rule="evenodd" d="M13.4707 12C13.4707 11.4477 13.9184 11 14.4707 11H16.0106C17.4134 11 18.5506 12.1372 18.5506 13.54C18.5506 14.9428 17.4134 16.08 16.0106 16.08H15.4707V17.32C15.4707 17.8723 15.023 18.32 14.4707 18.32C13.9184 18.32 13.4707 17.8723 13.4707 17.32V12ZM15.4707 14.08H16.0106C16.3088 14.08 16.5506 13.8382 16.5506 13.54C16.5506 13.2418 16.3088 13 16.0106 13H15.4707V14.08Z" fill="#41403E"/>
</svg>
