<svg width="24" height="24" viewBox="0 0 24 24" fill="none" xmlns="http://www.w3.org/2000/svg">
<path fill-rule="evenodd" clip-rule="evenodd" d="M4 3C4 2.44772 4.44772 2 5 2H8.25C10.8734 2 13 4.12665 13 6.75V7C13 8.93095 11.7838 10.5778 10.0756 11.2164L12.8638 15.9961C13.1421 16.4732 12.9809 17.0855 12.5039 17.3638C12.0268 17.6421 11.4145 17.4809 11.1362 17.0039L7.92563 11.5H6V16.5C6 17.0523 5.55228 17.5 5 17.5C4.44772 17.5 4 17.0523 4 16.5V3ZM6 9.5H8.5C9.88071 9.5 11 8.38071 11 7V6.75C11 5.23122 9.76878 4 8.25 4H6V9.5Z" fill="#41403E"/>
<path fill-rule="evenodd" clip-rule="evenodd" d="M13.5 11C13.5 10.4477 13.9477 10 14.5 10H17.25C19.3211 10 21 11.6789 21 13.75C21 15.8211 19.3211 17.5 17.25 17.5H15.5V20.5C15.5 21.0523 15.0523 21.5 14.5 21.5C13.9477 21.5 13.5 21.0523 13.5 20.5V11ZM15.5 15.5H17.25C18.2165 15.5 19 14.7165 19 13.75C19 12.7835 18.2165 12 17.25 12H15.5V15.5Z" fill="#41403E"/>
</svg>
