<svg width="24" height="24" viewBox="0 0 24 24" fill="none" xmlns="http://www.w3.org/2000/svg">
<path fill-rule="evenodd" clip-rule="evenodd" d="M7.65659 3.0002C7.66584 3.00027 7.67407 3.00033 7.68119 3.00033H10.0563C10.0704 3 10.0845 3 10.0986 3.00033H13.7078C13.7219 3 13.736 3 13.7501 3.00033H16.1252C16.1323 3.00033 16.1406 3.00027 16.1498 3.0002C16.2398 2.9995 16.426 2.99806 16.6092 3.04735C16.764 3.08901 16.9104 3.15754 17.0415 3.24982C17.1966 3.35901 17.3147 3.50295 17.3718 3.57255C17.3777 3.5797 17.3829 3.58607 17.3875 3.59153L21.3547 8.3522C21.4134 8.42257 21.4854 8.50899 21.5439 8.5909C21.613 8.68772 21.7008 8.82835 21.7539 9.01438C21.8239 9.25989 21.8239 9.5201 21.7539 9.76562C21.7008 9.95165 21.613 10.0923 21.5439 10.1891C21.4854 10.271 21.4134 10.3574 21.3547 10.4278L13.15 20.2734C13.0676 20.3724 12.9723 20.4868 12.881 20.5788C12.7781 20.6825 12.6132 20.8291 12.3732 20.9168C12.0697 21.0277 11.7367 21.0277 11.4332 20.9168C11.1932 20.8291 11.0283 20.6825 10.9254 20.5788C10.8341 20.4868 10.7388 20.3724 10.6564 20.2734L2.46345 10.4419C2.4596 10.4372 2.45569 10.4325 2.45171 10.4278C2.39302 10.3574 2.32096 10.271 2.26249 10.1891C2.19339 10.0923 2.1056 9.95164 2.05253 9.76562C1.98249 9.5201 1.98249 9.25989 2.05253 9.01438C2.1056 8.82835 2.19339 8.68772 2.26249 8.5909C2.32096 8.50899 2.39303 8.42257 2.45172 8.3522C2.4557 8.34743 2.45961 8.34275 2.46345 8.33814L6.41895 3.59153C6.42351 3.58607 6.42873 3.5797 6.4346 3.57255C6.49169 3.50295 6.60977 3.35901 6.76491 3.24982C6.89604 3.15754 7.04236 3.08901 7.1972 3.04735C7.3804 2.99806 7.56657 2.9995 7.65659 3.0002ZM13.0709 4.82595H10.7355L9.51842 8.47719H14.288L13.0709 4.82595ZM16.2124 8.47719L14.9953 4.82595H16.0397L19.0824 8.47719H16.2124ZM14.2705 10.3028L11.9032 17.1088L9.53592 10.3028H14.2705ZM7.59405 8.47719L8.81113 4.82595H7.76669L4.72399 8.47719H7.59405ZM4.724 10.3028H7.60301L9.6656 16.2327L4.724 10.3028ZM14.1408 16.2327L16.2034 10.3028H19.0824L14.1408 16.2327ZM7.88772 4.68196C7.88782 4.68185 7.88783 4.68184 7.88772 4.68196V4.68196ZM7.57861 4.82674C7.57845 4.82675 7.57846 4.82675 7.57861 4.82674V4.82674ZM16.2278 4.82674C16.228 4.82675 16.228 4.82675 16.2278 4.82674V4.82674ZM15.9187 4.68197C15.9186 4.68185 15.9186 4.68186 15.9187 4.68197V4.68197Z" fill="#41403E"/>
</svg>
