<svg width="24" height="24" viewBox="0 0 24 24" fill="none" xmlns="http://www.w3.org/2000/svg">
<path fill-rule="evenodd" clip-rule="evenodd" d="M8.78572 3.81818C8.55856 3.81818 8.33733 3.90991 8.17162 4.07863C8.00536 4.24791 7.9091 4.48093 7.9091 4.72727C7.9091 4.97361 8.00536 5.20663 8.17162 5.37591C8.33733 5.54464 8.55856 5.63636 8.78572 5.63636H10.7584C10.6926 5.48059 10.6169 5.31924 10.5305 5.15934C10.0888 4.34164 9.5218 3.81818 8.78572 3.81818ZM11.0909 7.45455V10.1818H4.36364C4.09407 10.1818 3.94657 10.1811 3.84058 10.1725C3.83636 10.1721 3.83237 10.1718 3.82859 10.1714C3.82825 10.1676 3.8279 10.1636 3.82755 10.1594C3.81889 10.0534 3.81819 9.90593 3.81819 9.63636V8C3.81819 7.73043 3.81889 7.58293 3.82755 7.47694C3.8279 7.47272 3.82825 7.46873 3.82859 7.46495C3.83237 7.46461 3.83636 7.46426 3.84058 7.46391C3.94657 7.45525 4.09407 7.45455 4.36364 7.45455H11.0909ZM6.24503 5.63636C6.14383 5.34666 6.09091 5.03944 6.09091 4.72727C6.09091 4.00919 6.37092 3.31729 6.87444 2.80462C7.3785 2.29139 8.06567 2 8.78572 2C10.4173 2 11.4296 3.10769 12 4.06566C12.5704 3.10769 13.5827 2 15.2143 2C15.9343 2 16.6215 2.29139 17.1256 2.80462C17.6291 3.31729 17.9091 4.00919 17.9091 4.72727C17.9091 5.03944 17.8562 5.34666 17.755 5.63636L19.6654 5.63636C19.8948 5.63633 20.1182 5.63631 20.3075 5.65177C20.5153 5.66875 20.7605 5.70881 21.0073 5.83453C21.3494 6.00885 21.6275 6.287 21.8018 6.62911C21.9276 6.87586 21.9676 7.12107 21.9846 7.32888C22.0001 7.51811 22 7.74155 22 7.97099V9.66538C22 9.89481 22.0001 10.1183 21.9846 10.3075C21.9676 10.5153 21.9276 10.7605 21.8018 11.0073C21.6275 11.3494 21.3494 11.6275 21.0073 11.8018C20.7605 11.9276 20.5153 11.9676 20.3075 11.9846C20.2671 11.9879 20.2251 11.9905 20.1818 11.9925V18.2169C20.1818 18.6961 20.1819 19.1095 20.154 19.45C20.1247 19.8094 20.0598 20.1669 19.8846 20.5109C19.6231 21.0241 19.2059 21.4413 18.6927 21.7027C18.3487 21.878 17.9913 21.9428 17.6318 21.9722C17.2913 22 16.8779 22 16.3987 22H12.0013C12.0008 22 12.0004 22 12 22C11.9996 22 11.9992 22 11.9987 22H7.60131C7.12209 22 6.70868 22 6.36816 21.9722C6.00876 21.9428 5.65128 21.878 5.3073 21.7027C4.79413 21.4413 4.37691 21.024 4.11544 20.5109C3.94017 20.1669 3.87534 19.8094 3.84598 19.45C3.81816 19.1095 3.81817 18.6961 3.81819 18.2169L3.81819 11.9925C3.77492 11.9905 3.73294 11.9879 3.69252 11.9846C3.48471 11.9676 3.2395 11.9276 2.99275 11.8018C2.65064 11.6275 2.37249 11.3494 2.19817 11.0073C2.07245 10.7605 2.03239 10.5153 2.01541 10.3075C1.99995 10.1182 1.99998 9.8948 2 9.66536L2 8C2 7.99032 2 7.98066 2 7.971C1.99998 7.74156 1.99995 7.51812 2.01541 7.32888C2.03239 7.12107 2.07245 6.87586 2.19817 6.62911C2.37249 6.287 2.65064 6.00885 2.99275 5.83453C3.2395 5.70881 3.48471 5.66875 3.69252 5.65177C3.88176 5.63631 4.1052 5.63633 4.33464 5.63636C4.3443 5.63636 4.35397 5.63636 4.36364 5.63636H6.24503ZM5.63637 12V18.1818C5.63637 18.706 5.63708 19.0444 5.65812 19.302C5.6783 19.5489 5.71255 19.6405 5.73545 19.6854C5.82261 19.8565 5.96168 19.9956 6.13274 20.0827C6.17769 20.1056 6.26925 20.1399 6.51622 20.1601C6.7738 20.1811 7.11223 20.1818 7.63637 20.1818H11.0909V12H5.63637ZM12.9091 12V20.1818H16.3636C16.8878 20.1818 17.2262 20.1811 17.4838 20.1601C17.7308 20.1399 17.8223 20.1056 17.8673 20.0827C18.0383 19.9956 18.1774 19.8565 18.2646 19.6854C18.2875 19.6405 18.3217 19.5489 18.3419 19.302C18.3629 19.0444 18.3636 18.706 18.3636 18.1818V12H12.9091ZM19.6364 10.1818C19.9059 10.1818 20.0534 10.1811 20.1594 10.1725C20.1636 10.1721 20.1676 10.1718 20.1714 10.1714C20.1718 10.1676 20.1721 10.1636 20.1725 10.1594C20.1811 10.0534 20.1818 9.90593 20.1818 9.63636V8C20.1818 7.73043 20.1811 7.58293 20.1725 7.47694C20.1721 7.47272 20.1718 7.46872 20.1714 7.46495C20.1676 7.4646 20.1636 7.46426 20.1594 7.46391C20.0534 7.45525 19.9059 7.45455 19.6364 7.45455H12.9091V10.1818H19.6364ZM15.2143 5.63636C15.4414 5.63636 15.6627 5.54464 15.8284 5.37591C15.9946 5.20663 16.0909 4.97361 16.0909 4.72727C16.0909 4.48093 15.9946 4.24791 15.8284 4.07863C15.6627 3.90991 15.4414 3.81818 15.2143 3.81818C14.4782 3.81818 13.9112 4.34164 13.4695 5.15934C13.3831 5.31924 13.3074 5.48059 13.2416 5.63636H15.2143Z" fill="#41403E"/>
</svg>
