<svg width="24" height="24" viewBox="0 0 24 24" fill="none" xmlns="http://www.w3.org/2000/svg">
<path fill-rule="evenodd" clip-rule="evenodd" d="M4 2C4 1.44772 3.55228 1 3 1C2.44772 1 2 1.44772 2 2V4.50001V9.50001V14.5V19.5V22C2 22.5523 2.44772 23 3 23C3.55229 23 4 22.5523 4 22V20.5L11.4319 20.5H11.432C11.6844 20.5 11.9301 20.5001 12.1382 20.4831C12.3668 20.4644 12.6366 20.4203 12.908 20.282C13.2843 20.0903 13.5903 19.7843 13.782 19.408C13.9203 19.1366 13.9644 18.8668 13.9831 18.6382C14.0001 18.4301 14 18.1843 14 17.9319L14 15.5L19.4319 15.5C19.6843 15.5 19.9301 15.5001 20.1382 15.4831C20.3668 15.4644 20.6366 15.4203 20.908 15.282C21.2843 15.0903 21.5903 14.7843 21.782 14.408C21.9203 14.1366 21.9644 13.8668 21.9831 13.6382C22.0001 13.4301 22 13.1844 22 12.932V12.9319V11.0681V11.068C22 10.8156 22.0001 10.5699 21.9831 10.3618C21.9644 10.1332 21.9203 9.86345 21.782 9.59202C21.5903 9.2157 21.2843 8.90974 20.908 8.71799C20.6366 8.5797 20.3668 8.53563 20.1382 8.51695C19.9301 8.49994 19.6843 8.49997 19.4319 8.5L18 8.50001L18 6.06812C18 5.81574 18.0001 5.56994 17.9831 5.36178C17.9644 5.13318 17.9203 4.86345 17.782 4.59203C17.5903 4.2157 17.2843 3.90974 16.908 3.71799C16.6366 3.5797 16.3668 3.53563 16.1382 3.51695C15.9301 3.49994 15.6843 3.49997 15.4319 3.5L4 3.50001V2ZM4 5.50001V8.50001L16 8.50001V6.10001C16 5.80348 15.9992 5.64122 15.9897 5.52464L15.9886 5.51145L15.9754 5.51031C15.8588 5.50078 15.6965 5.50001 15.4 5.50001H4ZM4 10.5L4 13.5L19.4 13.5C19.6965 13.5 19.8588 13.4992 19.9754 13.4897L19.9886 13.4885L19.9897 13.4754C19.9992 13.3588 20 13.1965 20 12.9V11.1C20 10.8035 19.9992 10.6412 19.9897 10.5246L19.9885 10.5115L19.9754 10.5103C19.8588 10.5008 19.6965 10.5 19.4 10.5H4ZM4 15.5V18.5H11.4C11.6965 18.5 11.8588 18.4992 11.9754 18.4897L11.9886 18.4886L11.9897 18.4754C11.9992 18.3588 12 18.1965 12 17.9V15.5L4 15.5Z" fill="#41403E"/>
</svg>
