<svg width="24" height="24" viewBox="0 0 24 24" fill="none" xmlns="http://www.w3.org/2000/svg">
<path fill-rule="evenodd" clip-rule="evenodd" d="M6.29289 6.29289C6.68342 5.90237 7.31658 5.90237 7.70711 6.29289L12 10.5858L13.7272 8.85858C13.7326 8.8532 13.738 8.84775 13.7436 8.84222C13.8278 8.75796 13.9283 8.65733 14.0242 8.57595C14.1352 8.48166 14.3038 8.35611 14.5365 8.28052C14.8377 8.18263 15.1623 8.18263 15.4635 8.28052C15.6962 8.35611 15.8648 8.48166 15.9758 8.57595C16.0717 8.65733 16.1722 8.75796 16.2564 8.84222C16.262 8.84775 16.2674 8.8532 16.2728 8.85858L20 12.5858V11C20 10.4477 20.4477 10 21 10C21.5523 10 22 10.4477 22 11V15C22 15.5523 21.5523 16 21 16H17C16.4477 16 16 15.5523 16 15C16 14.4477 16.4477 14 17 14H18.5858L15 10.4142L13.2728 12.1414C13.2674 12.1468 13.262 12.1523 13.2564 12.1578C13.1722 12.242 13.0717 12.3427 12.9758 12.424C12.8648 12.5183 12.6962 12.6439 12.4635 12.7195C12.1623 12.8174 11.8377 12.8174 11.5365 12.7195C11.3038 12.6439 11.1352 12.5183 11.0242 12.424C10.9283 12.3427 10.8278 12.242 10.7436 12.1578C10.738 12.1523 10.7326 12.1468 10.7272 12.1414L6.29289 7.70711C5.90237 7.31658 5.90237 6.68342 6.29289 6.29289Z" fill="#41403E"/>
<path fill-rule="evenodd" clip-rule="evenodd" d="M3 1.5C3.55228 1.5 4 1.94772 4 2.5V20H21C21.5523 20 22 20.4477 22 21C22 21.5523 21.5523 22 21 22H3C2.44772 22 2 21.5523 2 21V2.5C2 1.94772 2.44772 1.5 3 1.5Z" fill="#41403E"/>
</svg>
