<svg width="24" height="24" viewBox="0 0 24 24" fill="none" xmlns="http://www.w3.org/2000/svg">
<path fill-rule="evenodd" clip-rule="evenodd" d="M8.37789 2L15.6232 2C16.3688 1.99999 16.9862 1.99998 17.492 2.03982C18.0189 2.08133 18.5039 2.17037 18.9667 2.39179C19.6877 2.7368 20.2888 3.28992 20.6925 3.97981C20.9516 4.42258 21.0806 4.89856 21.1658 5.42017C21.2475 5.92088 21.2987 6.53615 21.3606 7.27917L22.0675 15.7615C22.1396 16.6271 22.199 17.339 22.1984 17.9195C22.1978 18.5203 22.1354 19.0771 21.9038 19.6056C21.5464 20.4209 20.9273 21.0938 20.1444 21.5176C19.637 21.7923 19.0874 21.9007 18.4886 21.9512C17.9102 22 17.1958 22 16.3272 22H7.67397C6.80532 22 6.09097 22 5.51251 21.9512C4.91376 21.9007 4.36413 21.7923 3.85668 21.5176C3.0738 21.0938 2.45468 20.4209 2.09734 19.6056C1.86572 19.0771 1.80334 18.5203 1.80274 17.9195C1.80216 17.3389 1.8615 16.6271 1.93365 15.7614L2.6405 7.27916C2.70241 6.53615 2.75367 5.92088 2.83537 5.42017C2.92049 4.89856 3.04951 4.42258 3.3086 3.97981C3.7123 3.28992 4.31342 2.7368 5.03445 2.39179C5.49721 2.17037 5.98226 2.08133 6.50914 2.03982C7.0149 1.99998 7.63231 1.99999 8.37789 2ZM6.66621 4.03364C6.26055 4.0656 6.04905 4.12348 5.89771 4.1959C5.53719 4.3684 5.23663 4.64496 5.03478 4.9899C4.95005 5.13471 4.8748 5.34068 4.80927 5.74227C4.74175 6.15601 4.69633 6.69239 4.63033 7.48443L3.93033 15.8844C3.85371 16.8038 3.80225 17.4313 3.80274 17.9175C3.80321 18.3929 3.85574 18.6353 3.92915 18.8028C4.10782 19.2105 4.41738 19.5469 4.80882 19.7588C4.96966 19.8459 5.20687 19.9184 5.68058 19.9583C6.16501 19.9992 6.79464 20 7.7172 20H16.2839C17.2065 20 17.8361 19.9992 18.3206 19.9583C18.7943 19.9184 19.0315 19.8459 19.1923 19.7588C19.5837 19.5469 19.8933 19.2105 20.072 18.8028C20.1454 18.6353 20.1979 18.3929 20.1984 17.9175C20.1989 17.4313 20.1474 16.8038 20.0708 15.8844L19.3708 7.48443C19.3048 6.69239 19.2594 6.15601 19.1919 5.74228C19.1263 5.34068 19.0511 5.13471 18.9663 4.98991C18.7645 4.64496 18.4639 4.3684 18.1034 4.1959C17.9521 4.12348 17.7406 4.0656 17.3349 4.03364C16.917 4.00072 16.3787 4 15.5839 4L8.4172 4C7.62242 4 7.08412 4.00072 6.66621 4.03364ZM8.00057 7C8.55285 7 9.00057 7.44772 9.00057 8C9.00057 8.79565 9.31664 9.55871 9.87924 10.1213C10.4419 10.6839 11.2049 11 12.0006 11C12.7962 11 13.5593 10.6839 14.1219 10.1213C14.6845 9.55871 15.0006 8.79565 15.0006 8C15.0006 7.44772 15.4483 7 16.0006 7C16.5528 7 17.0006 7.44772 17.0006 8C17.0006 9.32608 16.4738 10.5979 15.5361 11.5355C14.5984 12.4732 13.3266 13 12.0006 13C10.6745 13 9.40271 12.4732 8.46503 11.5355C7.52735 10.5979 7.00057 9.32608 7.00057 8C7.00057 7.44772 7.44828 7 8.00057 7Z" fill="#41403E"/>
</svg>
