<svg width="24" height="24" viewBox="0 0 24 24" fill="none" xmlns="http://www.w3.org/2000/svg">
<path fill-rule="evenodd" clip-rule="evenodd" d="M3.67163 1.00858C3.80497 1.01879 3.9908 1.04477 4.18984 1.13573C4.45155 1.25533 4.67333 1.44769 4.82874 1.68985C4.94695 1.87403 4.99894 2.05432 5.0279 2.18487C5.0525 2.29575 5.07045 2.42175 5.08515 2.52494C5.08614 2.53189 5.08711 2.53873 5.08807 2.54545L5.43872 5.00001H9C9.55228 5.00001 10 5.44773 10 6.00001C10 6.5523 9.55228 7.00001 9 7.00001H5.7167L6.61419 13.5966C6.683 14.1023 6.7277 14.4258 6.78045 14.671C6.83057 14.904 6.87359 14.9911 6.90221 15.0362C7.00555 15.1989 7.1537 15.3282 7.32884 15.4087C7.37734 15.431 7.46944 15.4619 7.70706 15.4801C7.95716 15.4993 8.28371 15.5 8.79411 15.5H17.352C17.8381 15.5 18.1481 15.4994 18.386 15.4816C18.6114 15.4648 18.7001 15.4363 18.748 15.4152C18.9178 15.3405 19.0634 15.2199 19.1686 15.0671C19.1983 15.0241 19.2429 14.9422 19.3016 14.724C19.3635 14.4936 19.4222 14.1892 19.5131 13.7117L20.7874 7.02154C20.5258 7.01582 20.2219 7.01158 19.911 7.00846C19.0689 7.00002 18.1988 7.00001 18.0332 7.00001C17.4809 7.00001 17.0332 6.5523 17.0332 6.00001C17.0332 5.44773 17.4809 5.00001 18.0332 5.00001C18.2 5.00001 19.0785 5.00001 19.9311 5.00856C20.3566 5.01283 20.7816 5.01928 21.1103 5.02916C21.2731 5.03405 21.4218 5.04005 21.5384 5.04776C21.5949 5.0515 21.6577 5.05652 21.7163 5.06389C21.7444 5.06743 21.7872 5.07342 21.835 5.08353C21.8354 5.08363 21.8362 5.08378 21.8371 5.08397C21.8587 5.0883 22.0017 5.11701 22.1511 5.20406C22.4582 5.38306 22.6918 5.66532 22.8102 6.00052C22.9038 6.26571 22.8944 6.50852 22.8782 6.66825C22.8638 6.81024 22.833 6.97125 22.8064 7.11082L21.4714 14.1194C21.3887 14.5537 21.3166 14.9323 21.2329 15.2435C21.1438 15.5749 21.0249 15.8978 20.8159 16.2013C20.5003 16.6598 20.0633 17.0213 19.5539 17.2456C19.2167 17.3941 18.8772 17.4505 18.535 17.476C18.2136 17.5 17.8282 17.5 17.3861 17.5H8.75873C8.29386 17.5 7.88978 17.5 7.55391 17.4742C7.19707 17.4468 6.84288 17.3864 6.49387 17.2261C5.96847 16.9847 5.52401 16.5966 5.21399 16.1085C5.00806 15.7843 4.90043 15.4415 4.82517 15.0916C4.75433 14.7623 4.69987 14.3619 4.63722 13.9013L3.58101 6.13812L3.1327 3.00001H2C1.44772 3.00001 1 2.5523 1 2.00001C1 1.44773 1.44772 1.00001 2 1.00001H3.30616C3.31296 1.00001 3.31987 1.00001 3.32688 1.00001C3.43112 0.999965 3.55839 0.999915 3.67163 1.00858ZM7 21C7 19.8954 7.89543 19 9 19C10.1046 19 11 19.8954 11 21C11 22.1046 10.1046 23 9 23C7.89543 23 7 22.1046 7 21ZM15 21C15 19.8954 15.8954 19 17 19C18.1046 19 19 19.8954 19 21C19 22.1046 18.1046 23 17 23C15.8954 23 15 22.1046 15 21Z" fill="#41403E"/>
<path fill-rule="evenodd" clip-rule="evenodd" d="M12.7929 6.29289C13.1834 5.90237 13.8166 5.90237 14.2071 6.29289L17.2071 9.29289C17.5976 9.68342 17.5976 10.3166 17.2071 10.7071C16.8166 11.0976 16.1834 11.0976 15.7929 10.7071L14.5 9.41421V13C14.5 13.5523 14.0523 14 13.5 14C12.9477 14 12.5 13.5523 12.5 13V9.41421L11.2071 10.7071C10.8166 11.0976 10.1834 11.0976 9.79289 10.7071C9.40237 10.3166 9.40237 9.68342 9.79289 9.29289L12.7929 6.29289Z" fill="#41403E"/>
</svg>
