<svg width="24" height="24" viewBox="0 0 24 24" fill="none" xmlns="http://www.w3.org/2000/svg">
<path fill-rule="evenodd" clip-rule="evenodd" d="M11.2244 3.0552C11.0209 3.00637 10.7932 2.99994 10.0119 2.99994L6.0001 2.99994C5.44782 2.99994 5.0001 2.55223 5.0001 1.99994C5.0001 1.44766 5.44782 0.999941 6.0001 0.999941L10.0119 0.999941C10.0463 0.999941 10.0802 0.999925 10.1138 0.999909C10.7487 0.999607 11.2285 0.999379 11.6912 1.11046C12.0994 1.20845 12.4896 1.37007 12.8475 1.58938C13.2532 1.83801 13.5923 2.17743 14.0411 2.62666C14.0648 2.65037 14.0888 2.67439 14.1131 2.69872L21.7072 10.2928C22.0977 10.6834 22.0977 11.3165 21.7072 11.707C21.3167 12.0976 20.6835 12.0976 20.293 11.707L12.6989 4.11294C12.1464 3.56042 11.9808 3.40396 11.8025 3.29466C11.6235 3.185 11.4284 3.10419 11.2244 3.0552ZM9.90512 6.52757C9.8168 6.50637 9.7114 6.49994 9.17462 6.49994H6.2001C5.62355 6.49994 5.25128 6.50072 4.96794 6.52387C4.69627 6.54606 4.59556 6.58374 4.54611 6.60893C4.35795 6.70481 4.20497 6.85779 4.1091 7.04595C4.0839 7.09539 4.04623 7.19611 4.02403 7.46778C4.00088 7.75111 4.0001 8.12339 4.0001 8.69994L4.0001 10.6745C4.0001 11.2112 4.00653 11.3166 4.02773 11.405C4.05223 11.507 4.09263 11.6045 4.14746 11.694C4.19492 11.7715 4.26491 11.8505 4.64447 12.2301L12.4445 20.0301C12.8522 20.4378 13.1159 20.7005 13.3327 20.8844C13.5404 21.0608 13.6383 21.1054 13.6911 21.1226C13.8919 21.1878 14.1083 21.1878 14.3091 21.1226C14.3619 21.1054 14.4598 21.0608 14.6675 20.8844C14.8843 20.7005 15.1481 20.4378 15.5557 20.0301L18.0303 17.5556C18.4379 17.1479 18.7006 16.8841 18.8846 16.6674C19.061 16.4596 19.1056 16.3617 19.1227 16.309C19.188 16.1081 19.188 15.8918 19.1227 15.6909C19.1056 15.6381 19.061 15.5403 18.8846 15.3325C18.7006 15.1158 18.4379 14.852 18.0303 14.4443L10.7303 7.14431C10.3507 6.76475 10.2716 6.69476 10.1942 6.6473C10.1047 6.59247 10.0072 6.55207 9.90512 6.52757ZM9.25792 4.49989C9.66482 4.49951 10.0236 4.49918 10.372 4.58283C10.6781 4.65632 10.9708 4.77753 11.2392 4.94202C11.5447 5.12925 11.7981 5.38316 12.0856 5.67114C12.1051 5.69064 12.1247 5.71029 12.1445 5.73009L19.4717 13.0573C19.8445 13.4301 20.1661 13.7516 20.4093 14.0381C20.666 14.3405 20.8936 14.669 21.0248 15.0729C21.2206 15.6754 21.2206 16.3245 21.0248 16.927C20.8936 17.3309 20.666 17.6593 20.4093 17.9617C20.1661 18.2482 19.8445 18.5698 19.4718 18.9425L16.9427 21.4716C16.57 21.8443 16.2484 22.1659 15.9619 22.4091C15.6595 22.6658 15.331 22.8935 14.9272 23.0247C14.3246 23.2205 13.6756 23.2205 13.0731 23.0247C12.6692 22.8935 12.3407 22.6658 12.0383 22.4091C11.7518 22.1659 11.4303 21.8443 11.0575 21.4716L3.23025 13.6443C3.21046 13.6245 3.1908 13.6049 3.17131 13.5854C2.88332 13.298 2.62942 13.0445 2.44218 12.739C2.27769 12.4706 2.15648 12.178 2.08299 11.8718C1.99934 11.5234 1.99967 11.1647 2.00005 10.7578C2.00008 10.7302 2.0001 10.7025 2.0001 10.6745L2.0001 8.6614C2.00008 8.13425 2.00007 7.67949 2.03067 7.30491C2.06297 6.90957 2.13429 6.51635 2.32708 6.13797C2.6147 5.57348 3.07364 5.11454 3.63813 4.82692C4.01651 4.63413 4.40973 4.56281 4.80507 4.53051C5.17965 4.49991 5.63441 4.49992 6.16156 4.49994L9.17462 4.49994C9.20262 4.49994 9.23038 4.49992 9.25792 4.49989Z" fill="#41403E"/>
</svg>
